<svg width="1441" height="377" viewBox="0 0 1441 377" fill="none" xmlns="http://www.w3.org/2000/svg">
<g clip-path="url(#clip0)">
<path fill-rule="evenodd" clip-rule="evenodd" d="M1791.43 327.06L1702.16 277.286C1612.89 227.511 1434.36 127.962 1255.82 119.667C1077.29 111.371 898.754 194.328 720.219 177.737C541.685 161.145 363.15 45.0049 184.615 11.8219C6.08074 -21.3611 -172.454 28.4134 -261.721 53.3006L-350.989 78.1879V376.835H-261.721C-172.454 376.835 6.08074 376.835 184.615 376.835C363.15 376.835 541.685 376.835 720.219 376.835C898.754 376.835 1077.29 376.835 1255.82 376.835C1434.36 376.835 1612.89 376.835 1702.16 376.835H1791.43V327.06Z" fill="#E8EBF7"/>
</g>
<defs>
<clipPath id="clip0">
<rect width="1440" height="376.063" fill="white" transform="translate(0.0114746 0.771973)"/>
</clipPath>
</defs>
</svg>
