<svg width="1440" height="584" viewBox="0 0 1440 584" fill="none" xmlns="http://www.w3.org/2000/svg">
<g clip-path="url(#clip0)">
<g style="mix-blend-mode:overlay">
<path fill-rule="evenodd" clip-rule="evenodd" d="M-360 0H-270C-180 0 0 0 180 32.4C360 64.8 540 129.6 720 226.8C900 324 1080 453.6 1260 507.6C1440 561.6 1620 540 1710 529.2L1800 518.4V583.2H1710C1620 583.2 1440 583.2 1260 583.2C1080 583.2 900 583.2 720 583.2C540 583.2 360 583.2 180 583.2C0 583.2 -180 583.2 -270 583.2H-360V0Z" fill="url(#paint0_linear)" fill-opacity="0.5"/>
</g>
</g>
<defs>
<linearGradient id="paint0_linear" x1="720" y1="0" x2="720" y2="583.2" gradientUnits="userSpaceOnUse">
<stop/>
<stop offset="1" stop-opacity="0"/>
</linearGradient>
<clipPath id="clip0">
<rect width="1440" height="583.2" fill="white"/>
</clipPath>
</defs>
</svg>
