<svg width="86" height="390" viewBox="0 0 86 390" fill="none" xmlns="http://www.w3.org/2000/svg">
<path d="M23.4519 22.4735C20.7952 20.898 16.429 20.7503 13.9127 21.5216C13.5111 21.6447 13.0753 21.415 12.9506 21.0129C12.826 20.6108 13.054 20.1759 13.4556 20.0528C16.3489 19.1747 21.1665 19.3388 24.2263 21.1524C24.5882 21.3657 24.7131 21.8417 24.5012 22.2027C24.281 22.5638 23.8138 22.6869 23.4519 22.4735ZM23.3707 24.7958C23.1831 25.0995 22.7896 25.1897 22.4935 25.0092C20.2807 23.6552 16.9147 23.2613 14.3165 24.0491C13.9804 24.1476 13.6186 23.9588 13.5188 23.6224C13.419 23.2859 13.6064 22.9249 13.9424 22.8264C16.9177 21.9237 20.6285 22.3587 23.1621 23.9178C23.4582 24.0983 23.5582 24.4922 23.3707 24.7958ZM22.3783 27.0279C22.2315 27.2658 21.92 27.3479 21.6732 27.2002C19.7402 26.0185 17.3184 25.7559 14.4652 26.4124C14.1865 26.4781 13.915 26.3057 13.8483 26.0267C13.7815 25.7477 13.9528 25.4769 14.2315 25.4113C17.3553 24.6974 20.0398 25.001 22.2032 26.3221C22.4418 26.4781 22.525 26.7899 22.3783 27.0279ZM18.5654 15.1948C14.0357 15.1948 10.3737 18.8711 10.3915 23.4008C10.4092 27.9305 14.0998 31.6068 18.6296 31.6068C23.1593 31.6068 26.8213 27.9305 26.8036 23.4008C26.7859 18.8711 23.0952 15.1948 18.5654 15.1948Z" fill="white" fill-opacity="0.8"/>
<path d="M55.2175 18.0518C54.6828 18.0518 54.2464 18.5008 54.2485 19.0485C54.2507 19.5963 54.6906 20.0453 55.2253 20.0453C55.7599 20.0453 56.1963 19.5963 56.1942 19.0485C56.1833 18.5008 55.7521 18.0518 55.2175 18.0518Z" fill="white" fill-opacity="0.8"/>
<path d="M33.4632 22.2095C31.9456 21.8413 31.6816 21.5809 31.6795 21.0331C31.6775 20.5213 32.1494 20.1711 32.8505 20.1711C33.5341 20.1711 34.21 20.4315 34.9221 20.9793C34.9397 20.9972 34.9748 21.0062 35.001 20.9972C35.0273 20.9972 35.0535 20.9793 35.0622 20.9523L35.7942 19.8837C35.8203 19.8388 35.8201 19.7759 35.7762 19.749C34.9321 19.0575 33.9754 18.7163 32.8624 18.7163C31.2322 18.7163 30.088 19.7221 30.0936 21.1589C30.0997 22.7034 31.0834 23.2422 32.7853 23.6643C34.2327 24.0055 34.4793 24.2929 34.4813 24.8047C34.4835 25.3704 33.9941 25.7207 33.1965 25.7207C32.3113 25.7207 31.5914 25.4153 30.7823 24.6969C30.7647 24.679 30.7384 24.67 30.7121 24.67C30.6858 24.67 30.6596 24.688 30.6421 24.7059L29.8135 25.7117C29.7786 25.7566 29.7876 25.8194 29.8228 25.8554C30.7639 26.7174 31.9226 27.1664 33.1671 27.1664C34.9287 27.1664 36.0642 26.1786 36.0582 24.652C36.0621 23.3859 35.3055 22.6675 33.4632 22.2095Z" fill="white" fill-opacity="0.8"/>
<path d="M41.3228 23.9428C41.3271 25.0294 40.6728 25.7927 39.735 25.7927C38.806 25.7927 38.1105 25.0025 38.1064 23.9428C38.1022 22.8922 38.8003 22.093 39.7205 22.093C40.6495 22.093 41.3186 22.8652 41.3228 23.9428ZM40.0305 20.6831C39.268 20.6831 38.647 20.9884 38.1324 21.626L38.1296 20.9166C38.1294 20.8627 38.0854 20.8178 38.0328 20.8178L36.6743 20.8178C36.6217 20.8178 36.5781 20.8627 36.5783 20.9166L36.6092 28.81C36.6094 28.8638 36.6534 28.9087 36.706 28.9087H38.0644C38.117 28.9087 38.1606 28.8638 38.1604 28.81L38.1507 26.3135C38.6701 26.9062 39.2935 27.1936 40.056 27.1936C41.4758 27.1936 42.9087 26.0711 42.9004 23.9338C42.892 21.7966 41.4503 20.6831 40.0305 20.6831Z" fill="white" fill-opacity="0.8"/>
<path d="M46.5887 25.8017C45.6158 25.8017 44.8853 25.0025 44.8811 23.9428C44.877 22.8742 45.5838 22.1019 46.5567 22.1019C47.5383 22.1019 48.2776 22.9012 48.2817 23.9608C48.2772 25.0294 47.5703 25.8017 46.5887 25.8017ZM46.5687 20.6831C44.7457 20.6831 43.314 22.1199 43.3212 23.9608C43.3283 25.7837 44.7536 27.2026 46.5679 27.2026C48.3996 27.2026 49.8313 25.7658 49.8241 23.9338C49.817 22.1109 48.3829 20.6831 46.5687 20.6831Z" fill="white" fill-opacity="0.8"/>
<path d="M53.7121 20.8087H52.2221L52.216 19.2462C52.2158 19.1924 52.1718 19.1475 52.1192 19.1475H50.7608C50.7082 19.1475 50.6645 19.1924 50.6648 19.2462L50.6709 20.8087H50.0135C49.961 20.8087 49.9173 20.8536 49.9175 20.9075L49.9222 22.1019C49.9224 22.1557 49.9664 22.2006 50.019 22.2006H50.6675L50.6796 25.2897C50.6845 26.5379 51.2917 27.1665 52.4924 27.1665C52.9744 27.1665 53.3772 27.0678 53.762 26.8433C53.7969 26.8253 53.8143 26.7894 53.8142 26.7535L53.8097 25.613C53.8096 25.5771 53.7919 25.5412 53.7656 25.5232C53.7392 25.5052 53.6954 25.5052 53.6691 25.5142C53.4067 25.6489 53.1528 25.7118 52.8723 25.7118C52.4341 25.7118 52.2405 25.5052 52.2388 25.0563L52.2275 22.1827H53.7174C53.77 22.1827 53.8137 22.1378 53.8135 22.0839L53.8089 20.9075C53.8087 20.8536 53.7647 20.8087 53.7121 20.8087Z" fill="white" fill-opacity="0.8"/>
<path d="M58.9094 20.8179L58.9087 20.6293C58.9064 20.0635 59.1158 19.8121 59.5891 19.8121C59.8695 19.8121 60.0976 19.866 60.3521 19.9558C60.3872 19.9648 60.4135 19.9648 60.4397 19.9378C60.4659 19.9199 60.4833 19.8839 60.4832 19.857L60.4786 18.6896C60.4785 18.6447 60.452 18.6088 60.4081 18.5908C60.1361 18.51 59.794 18.4292 59.2769 18.4292C58.0236 18.4292 57.3691 19.1476 57.3744 20.5125L57.3756 20.8089H56.727C56.6745 20.8089 56.6308 20.8538 56.631 20.9077L56.6357 22.111C56.6359 22.1649 56.6799 22.2098 56.7325 22.2098H57.3811L57.3997 26.9691C57.3999 27.023 57.4439 27.0679 57.4965 27.0679H58.8549C58.9075 27.0679 58.9512 27.023 58.951 26.9691L58.9324 22.2098H60.1944L62.1499 26.9691C61.9328 27.472 61.7141 27.5708 61.4161 27.5708C61.1794 27.5708 60.925 27.4989 60.6703 27.3553C60.6439 27.3373 60.6176 27.3373 60.5914 27.3463C60.5651 27.3553 60.5476 27.3732 60.5302 27.4002L60.0785 28.4328C60.0612 28.4777 60.0789 28.5406 60.1229 28.5675C60.6059 28.8369 61.0358 28.9447 61.5704 28.9447C62.5696 28.9447 63.1199 28.4688 63.6056 27.1846L65.9301 20.9615C65.9388 20.9346 65.9387 20.8987 65.921 20.8628C65.9034 20.8358 65.8682 20.8179 65.8419 20.8179H64.4309C64.3871 20.8179 64.3521 20.8448 64.3348 20.8897L62.9139 25.1103L61.311 20.8807C61.2934 20.8448 61.2582 20.8179 61.2144 20.8179H58.9094Z" fill="white" fill-opacity="0.8"/>
<path d="M55.8943 20.8086H54.5359C54.4833 20.8086 54.4396 20.8535 54.4398 20.9074L54.4635 26.9598C54.4637 27.0137 54.5077 27.0586 54.5603 27.0586H55.9188C55.9713 27.0586 56.015 27.0137 56.0148 26.9598L55.9911 20.9074C55.9909 20.8535 55.9469 20.8086 55.8943 20.8086Z" fill="white" fill-opacity="0.8"/>
<path d="M67.1674 25.8372H66.922L66.9232 26.1605H67.1686C67.2913 26.1605 67.37 26.0976 67.3696 25.9988C67.3692 25.8911 67.2901 25.8372 67.1674 25.8372ZM67.3357 26.3041L67.6089 26.6903H67.3811L67.1343 26.3311H66.9239L66.9253 26.6903H66.7325L66.7285 25.6666H67.1755C67.4121 25.6666 67.5616 25.7923 67.5624 25.9898C67.563 26.1605 67.467 26.2592 67.3357 26.3041ZM67.1216 25.3253C66.6308 25.3253 66.2642 25.7205 66.2661 26.2143C66.268 26.6993 66.6377 27.0944 67.1197 27.0944C67.6105 27.0944 67.9771 26.6993 67.9751 26.2054C67.9732 25.7115 67.6036 25.3253 67.1216 25.3253ZM67.1201 27.1842C66.5854 27.1842 66.163 26.7442 66.1609 26.2054C66.1588 25.6666 66.5778 25.2266 67.1124 25.2266C67.647 25.2266 68.0694 25.6666 68.0715 26.2054C68.0736 26.7352 67.6547 27.1842 67.1201 27.1842Z" fill="white" fill-opacity="0.8"/>
<path fill-rule="evenodd" clip-rule="evenodd" d="M15.3586 54.8274L13.2431 53.6061C13.1626 53.5596 13.0714 53.5352 12.9785 53.5352C12.8864 53.5352 12.7946 53.5591 12.7125 53.6069L10.5954 54.8388C10.4326 54.9335 10.3324 55.1077 10.3324 55.2962L10.3322 58.6882C10.3322 58.8637 10.4742 59.0057 10.6496 59.0057H12.1311C12.3066 59.0057 12.4486 58.8637 12.4486 58.6882L12.4486 57.2068C12.4486 57.1484 12.496 57.101 12.5544 57.101H13.4009C13.4594 57.101 13.5068 57.1484 13.5068 57.2068L13.5068 58.6882C13.5068 58.8637 13.6488 59.0057 13.8242 59.0057H15.3057C15.4812 59.0057 15.6232 58.8637 15.6232 58.6882L15.6232 55.2856C15.6232 55.0966 15.5222 54.922 15.3586 54.8274ZM15.4123 58.689C15.4123 58.7474 15.3649 58.7948 15.3065 58.7948H13.825C13.7666 58.7948 13.7192 58.7474 13.7192 58.689L13.7192 57.2075C13.7192 57.0325 13.5768 56.8901 13.4017 56.8901H12.5552C12.3801 56.8901 12.2377 57.0325 12.2377 57.2075L12.2377 58.689C12.2377 58.7474 12.1903 58.7948 12.1319 58.7948H10.6504C10.592 58.7948 10.5446 58.7474 10.5446 58.689L10.5448 55.2969C10.5448 55.1843 10.6053 55.0791 10.7027 55.0226L12.8197 53.7909C12.9181 53.7338 13.0395 53.7337 13.138 53.7905L15.2536 55.0116C15.3514 55.0684 15.4123 55.1735 15.4123 55.2865L15.4123 58.689Z" fill="white" fill-opacity="0.5"/>
<path d="M25.1157 58.1249L25.1157 56.6238H23.538L23.538 58.1249H22.8333L22.8333 54.5048H23.538L23.538 55.96H25.1157L25.1157 54.5048H25.8255L25.8255 58.1249H25.1157ZM27.7105 57.5837C27.7922 57.5837 27.8722 57.5684 27.9505 57.5377C28.0288 57.5071 28.0969 57.4629 28.1547 57.405C28.2126 57.3437 28.2586 57.2688 28.2926 57.1803C28.33 57.0918 28.3488 56.988 28.3488 56.8689C28.3488 56.7497 28.33 56.6459 28.2926 56.5574C28.2586 56.4689 28.2126 56.3957 28.1547 56.3379C28.0969 56.2766 28.0288 56.2306 27.9505 56.2C27.8722 56.1694 27.7922 56.154 27.7105 56.154C27.6288 56.154 27.5488 56.1694 27.4705 56.2C27.3922 56.2306 27.3242 56.2766 27.2663 56.3379C27.2084 56.3957 27.1608 56.4689 27.1233 56.5574C27.0893 56.6459 27.0723 56.7497 27.0723 56.8689C27.0723 56.988 27.0893 57.0918 27.1233 57.1803C27.1608 57.2688 27.2084 57.3437 27.2663 57.405C27.3242 57.4629 27.3922 57.5071 27.4705 57.5377C27.5488 57.5684 27.6288 57.5837 27.7105 57.5837ZM27.7105 55.5362C27.8977 55.5362 28.0713 55.5703 28.2313 55.6383C28.3947 55.703 28.5343 55.7949 28.65 55.9141C28.7692 56.0298 28.8611 56.1694 28.9257 56.3327C28.9938 56.4961 29.0279 56.6748 29.0279 56.8689C29.0279 57.0629 28.9938 57.2416 28.9257 57.405C28.8611 57.565 28.7692 57.7045 28.65 57.8237C28.5343 57.9428 28.3947 58.0364 28.2313 58.1045C28.0713 58.1692 27.8977 58.2015 27.7105 58.2015C27.5233 58.2015 27.348 58.1692 27.1846 58.1045C27.0246 58.0364 26.8851 57.9428 26.7659 57.8237C26.6502 57.7045 26.5583 57.565 26.4902 57.405C26.4255 57.2416 26.3932 57.0629 26.3932 56.8689C26.3932 56.6748 26.4255 56.4961 26.4902 56.3327C26.5583 56.1694 26.6502 56.0298 26.7659 55.9141C26.8851 55.7949 27.0246 55.703 27.1846 55.6383C27.348 55.5703 27.5233 55.5362 27.7105 55.5362ZM29.5681 58.1249L29.5681 55.6128H30.2165L30.2165 55.9192C30.2506 55.8579 30.2948 55.8034 30.3493 55.7558C30.4037 55.7081 30.4633 55.669 30.528 55.6383C30.5961 55.6077 30.6658 55.5839 30.7373 55.5669C30.8122 55.5498 30.8837 55.5413 30.9518 55.5413C31.1254 55.5413 31.2769 55.5771 31.4062 55.6486C31.5356 55.72 31.6326 55.8239 31.6973 55.96C31.796 55.8068 31.9117 55.6996 32.0445 55.6383C32.1772 55.5737 32.327 55.5413 32.4938 55.5413C32.6095 55.5413 32.7219 55.5601 32.8308 55.5975C32.9397 55.6315 33.0367 55.6877 33.1218 55.766C33.2069 55.8443 33.275 55.9447 33.3261 56.0672C33.3771 56.1864 33.4027 56.3293 33.4027 56.4961L33.4027 58.1249H32.744L32.744 56.634C32.744 56.4978 32.7082 56.3855 32.6368 56.297C32.5687 56.2051 32.4563 56.1591 32.2998 56.1591C32.1534 56.1591 32.0394 56.2085 31.9577 56.3072C31.876 56.4025 31.8351 56.5183 31.8351 56.6544L31.8351 58.1249H31.1611L31.1611 56.634C31.1611 56.4978 31.1254 56.3855 31.0539 56.297C30.9824 56.2051 30.8701 56.1591 30.7169 56.1591C30.5671 56.1591 30.4514 56.2068 30.3697 56.3021C30.288 56.3974 30.2472 56.5149 30.2472 56.6544L30.2472 58.1249H29.5681ZM35.725 56.5829C35.7216 56.5217 35.708 56.4621 35.6842 56.4042C35.6638 56.343 35.6297 56.2902 35.5821 56.2459C35.5378 56.1983 35.48 56.1608 35.4085 56.1336C35.3404 56.103 35.2587 56.0877 35.1634 56.0877C35.0749 56.0877 34.9966 56.103 34.9285 56.1336C34.8604 56.1643 34.8026 56.2034 34.7549 56.2511C34.7073 56.2987 34.6698 56.3515 34.6426 56.4093C34.6187 56.4672 34.6051 56.5251 34.6017 56.5829H35.725ZM36.3582 57.405C36.3276 57.5139 36.2782 57.6177 36.2101 57.7165C36.1454 57.8118 36.0654 57.8952 35.9701 57.9666C35.8748 58.0381 35.7625 58.0943 35.6331 58.1351C35.5072 58.1794 35.3676 58.2015 35.2144 58.2015C35.0408 58.2015 34.8758 58.1726 34.7192 58.1147C34.5626 58.0534 34.4247 57.9649 34.3056 57.8492C34.1864 57.7335 34.0911 57.5922 34.0196 57.4254C33.9516 57.2586 33.9175 57.0697 33.9175 56.8587C33.9175 56.6578 33.9516 56.4757 34.0196 56.3123C34.0877 56.1489 34.1779 56.0111 34.2903 55.8987C34.406 55.783 34.5388 55.6945 34.6885 55.6332C34.8383 55.5686 34.9932 55.5362 35.1532 55.5362C35.5446 55.5362 35.8493 55.652 36.0671 55.8834C36.285 56.1149 36.3939 56.4332 36.3939 56.8382C36.3939 56.8859 36.3922 56.9318 36.3888 56.9761C36.3854 57.0169 36.3837 57.0408 36.3837 57.0476H34.5864C34.5898 57.1293 34.6085 57.2059 34.6426 57.2773C34.68 57.3454 34.726 57.405 34.7804 57.456C34.8383 57.5071 34.9047 57.548 34.9796 57.5786C35.0545 57.6058 35.1345 57.6194 35.2196 57.6194C35.3795 57.6194 35.5038 57.5837 35.5923 57.5122C35.6842 57.4407 35.7506 57.3488 35.7914 57.2365L36.3582 57.405Z" fill="white" fill-opacity="0.5"/>
<mask id="path-16-inside-1" fill="white">
<path fill-rule="evenodd" clip-rule="evenodd" d="M12.6815 70.741C11.6568 70.741 10.826 69.9101 10.826 68.8851C10.826 67.8601 11.6568 67.0293 12.6815 67.0293C13.7062 67.0293 14.537 67.8601 14.537 68.8851C14.537 69.5125 14.2261 70.0673 13.7483 70.4038C13.4466 70.6163 13.0792 70.741 12.6815 70.741ZM14.1951 70.5097C14.6298 70.1043 14.9017 69.5265 14.9017 68.8851C14.9017 67.6587 13.9077 66.6646 12.6815 66.6646C11.4553 66.6646 10.4613 67.6587 10.4613 68.8851C10.4613 70.1115 11.4553 71.1057 12.6815 71.1057C13.1352 71.1057 13.5571 70.9696 13.9086 70.736L15.1634 72.1827L15.4389 71.9437L14.1951 70.5097Z"/>
</mask>
<path fill-rule="evenodd" clip-rule="evenodd" d="M12.6815 70.741C11.6568 70.741 10.826 69.9101 10.826 68.8851C10.826 67.8601 11.6568 67.0293 12.6815 67.0293C13.7062 67.0293 14.537 67.8601 14.537 68.8851C14.537 69.5125 14.2261 70.0673 13.7483 70.4038C13.4466 70.6163 13.0792 70.741 12.6815 70.741ZM14.1951 70.5097C14.6298 70.1043 14.9017 69.5265 14.9017 68.8851C14.9017 67.6587 13.9077 66.6646 12.6815 66.6646C11.4553 66.6646 10.4613 67.6587 10.4613 68.8851C10.4613 70.1115 11.4553 71.1057 12.6815 71.1057C13.1352 71.1057 13.5571 70.9696 13.9086 70.736L15.1634 72.1827L15.4389 71.9437L14.1951 70.5097Z" fill="white" fill-opacity="0.5"/>
<path d="M13.7483 70.4038L13.6433 70.2547L13.7483 70.4038ZM14.1951 70.5097L14.0707 70.3763L13.9421 70.4963L14.0573 70.6292L14.1951 70.5097ZM13.9086 70.736L14.0464 70.6165L13.9413 70.4953L13.8077 70.5841L13.9086 70.736ZM15.1634 72.1827L15.0256 72.3022L15.1451 72.4399L15.2829 72.3205L15.1634 72.1827ZM15.4389 71.9437L15.5584 72.0815L15.6962 71.962L15.5767 71.8243L15.4389 71.9437ZM10.6437 68.8851C10.6437 70.0108 11.5561 70.9233 12.6815 70.9233L12.6815 70.5586C11.7576 70.5586 11.0084 69.8095 11.0084 68.8851H10.6437ZM12.6815 66.8469C11.5561 66.8469 10.6437 67.7594 10.6437 68.8851H11.0084C11.0084 67.9608 11.7576 67.2116 12.6815 67.2116L12.6815 66.8469ZM14.7193 68.8851C14.7193 67.7594 13.8069 66.8469 12.6815 66.8469L12.6815 67.2116C13.6055 67.2116 14.3546 67.9608 14.3546 68.8851H14.7193ZM13.8533 70.5529C14.3775 70.1837 14.7193 69.5743 14.7193 68.8851H14.3546C14.3546 69.4508 14.0746 69.9509 13.6433 70.2547L13.8533 70.5529ZM12.6815 70.9233C13.118 70.9233 13.5219 70.7863 13.8533 70.5529L13.6433 70.2547C13.3714 70.4462 13.0404 70.5586 12.6815 70.5586L12.6815 70.9233ZM14.3195 70.6431C14.7897 70.2046 15.0841 69.5791 15.0841 68.8851H14.7193C14.7193 69.4738 14.47 70.004 14.0707 70.3763L14.3195 70.6431ZM15.0841 68.8851C15.0841 67.5581 14.0084 66.4822 12.6815 66.4822L12.6815 66.8469C13.8069 66.8469 14.7193 67.7594 14.7193 68.8851H15.0841ZM12.6815 66.4822C11.3546 66.4822 10.2789 67.5581 10.2789 68.8851H10.6437C10.6437 67.7594 11.5561 66.8469 12.6815 66.8469L12.6815 66.4822ZM10.2789 68.8851C10.2789 70.2122 11.3546 71.288 12.6815 71.288L12.6815 70.9233C11.5561 70.9233 10.6437 70.0108 10.6437 68.8851H10.2789ZM12.6815 71.288C13.1722 71.288 13.629 71.1407 14.0095 70.8879L13.8077 70.5841C13.4851 70.7985 13.0982 70.9233 12.6815 70.9233L12.6815 71.288ZM15.3012 72.0632L14.0464 70.6165L13.7708 70.8555L15.0256 72.3022L15.3012 72.0632ZM15.3194 71.806L15.0439 72.0449L15.2829 72.3205L15.5584 72.0815L15.3194 71.806ZM14.0573 70.6292L15.3012 72.0632L15.5767 71.8243L14.3329 70.3902L14.0573 70.6292Z" fill="white" fill-opacity="0.8" mask="url(#path-16-inside-1)"/>
<path d="M24.6358 68.6912C24.6255 68.6401 24.6068 68.5856 24.5796 68.5278C24.5558 68.4665 24.5183 68.4103 24.4673 68.3593C24.4162 68.3082 24.3498 68.2657 24.2681 68.2316C24.1898 68.1976 24.0928 68.1806 23.9771 68.1806C23.892 68.1806 23.8137 68.1942 23.7422 68.2214C23.6741 68.2452 23.6146 68.2793 23.5635 68.3235C23.5158 68.3644 23.4784 68.412 23.4512 68.4665C23.4239 68.521 23.4103 68.5788 23.4103 68.6401C23.4103 68.7388 23.4427 68.8256 23.5073 68.9005C23.572 68.972 23.6707 69.0213 23.8035 69.0486L24.309 69.1456C24.4724 69.1762 24.617 69.2256 24.743 69.2936C24.8689 69.3617 24.9745 69.4434 25.0596 69.5387C25.1447 69.6306 25.2093 69.7345 25.2536 69.8502C25.2978 69.9659 25.32 70.0868 25.32 70.2127C25.32 70.3523 25.291 70.4901 25.2332 70.6263C25.1753 70.759 25.0902 70.8782 24.9779 70.9837C24.8689 71.0858 24.7328 71.1692 24.5694 71.2339C24.4094 71.2986 24.2239 71.3309 24.0128 71.3309C23.7711 71.3309 23.5635 71.2969 23.3899 71.2288C23.2163 71.1573 23.0699 71.0671 22.9508 70.9582C22.835 70.8492 22.7465 70.7284 22.6853 70.5957C22.624 70.4595 22.5866 70.3267 22.5729 70.1974L23.2265 70.0238C23.2333 70.1123 23.2537 70.1974 23.2878 70.2791C23.3252 70.3608 23.3763 70.434 23.441 70.4986C23.5056 70.5599 23.5856 70.6093 23.6809 70.6467C23.7762 70.6842 23.8886 70.7029 24.0179 70.7029C24.2086 70.7029 24.3532 70.662 24.4519 70.5803C24.5541 70.4952 24.6051 70.388 24.6051 70.2587C24.6051 70.1531 24.5677 70.0629 24.4928 69.9881C24.4179 69.9098 24.309 69.857 24.166 69.8298L23.6605 69.7277C23.3712 69.6698 23.1397 69.5523 22.9661 69.3753C22.7959 69.1949 22.7108 68.9669 22.7108 68.6912C22.7108 68.5312 22.7431 68.3831 22.8078 68.2469C22.8759 68.1074 22.9678 67.9865 23.0835 67.8844C23.1993 67.7823 23.3337 67.7023 23.4869 67.6444C23.6401 67.5866 23.8018 67.5576 23.972 67.5576C24.1898 67.5576 24.3754 67.5883 24.5285 67.6495C24.6851 67.7074 24.8145 67.7823 24.9166 67.8742C25.0187 67.9661 25.097 68.0682 25.1515 68.1806C25.2093 68.2895 25.2485 68.395 25.2689 68.4971L24.6358 68.6912ZM27.5275 69.7123C27.5241 69.6511 27.5105 69.5915 27.4867 69.5336C27.4663 69.4724 27.4322 69.4196 27.3846 69.3753C27.3403 69.3277 27.2825 69.2902 27.211 69.263C27.1429 69.2324 27.0612 69.2171 26.9659 69.2171C26.8774 69.2171 26.7991 69.2324 26.731 69.263C26.6629 69.2936 26.6051 69.3328 26.5574 69.3804C26.5097 69.4281 26.4723 69.4809 26.4451 69.5387C26.4212 69.5966 26.4076 69.6545 26.4042 69.7123H27.5275ZM28.1607 70.5344C28.13 70.6433 28.0807 70.7471 28.0126 70.8458C27.9479 70.9412 27.8679 71.0246 27.7726 71.096C27.6773 71.1675 27.565 71.2237 27.4356 71.2645C27.3097 71.3088 27.1701 71.3309 27.0169 71.3309C26.8433 71.3309 26.6782 71.302 26.5217 71.2441C26.3651 71.1828 26.2272 71.0943 26.1081 70.9786C25.9889 70.8629 25.8936 70.7216 25.8221 70.5548C25.7541 70.388 25.72 70.1991 25.72 69.9881C25.72 69.7872 25.7541 69.6051 25.8221 69.4417C25.8902 69.2783 25.9804 69.1405 26.0928 69.0281C26.2085 68.9124 26.3413 68.8239 26.491 68.7626C26.6408 68.698 26.7957 68.6656 26.9557 68.6656C27.3471 68.6656 27.6518 68.7814 27.8696 69.0128C28.0875 69.2443 28.1964 69.5626 28.1964 69.9676C28.1964 70.0153 28.1947 70.0612 28.1913 70.1055C28.1879 70.1463 28.1862 70.1702 28.1862 70.177H26.3889C26.3923 70.2587 26.411 70.3353 26.4451 70.4067C26.4825 70.4748 26.5285 70.5344 26.5829 70.5854C26.6408 70.6365 26.7072 70.6774 26.7821 70.708C26.857 70.7352 26.9369 70.7488 27.022 70.7488C27.182 70.7488 27.3063 70.7131 27.3948 70.6416C27.4867 70.5701 27.5531 70.4782 27.5939 70.3659L28.1607 70.5344ZM28.5923 70.5701C28.5923 70.4578 28.611 70.3591 28.6484 70.274C28.6893 70.1855 28.7437 70.1089 28.8118 70.0442C28.8799 69.9795 28.9582 69.9285 29.0467 69.891C29.1386 69.8536 29.2373 69.8264 29.3428 69.8093L29.9607 69.7174C30.0321 69.7072 30.0815 69.6868 30.1087 69.6562C30.136 69.6221 30.1496 69.583 30.1496 69.5387C30.1496 69.4502 30.1138 69.3736 30.0424 69.309C29.9743 69.2443 29.8688 69.212 29.7258 69.212C29.576 69.212 29.4603 69.2528 29.3786 69.3345C29.3003 69.4162 29.256 69.5115 29.2458 69.6204L28.6433 69.4928C28.6535 69.3941 28.6842 69.2954 28.7352 69.1966C28.7863 69.0979 28.8561 69.0094 28.9446 68.9311C29.0331 68.8528 29.142 68.7899 29.2714 68.7422C29.4007 68.6912 29.5505 68.6656 29.7207 68.6656C29.9181 68.6656 30.0866 68.6929 30.2262 68.7473C30.3657 68.7984 30.4781 68.8682 30.5632 68.9567C30.6517 69.0418 30.7146 69.1422 30.7521 69.2579C30.7929 69.3736 30.8134 69.4945 30.8134 69.6204L30.8134 70.8561C30.8134 70.9241 30.8168 70.9973 30.8236 71.0756C30.8304 71.1505 30.8372 71.2101 30.844 71.2543H30.2211C30.2143 71.2203 30.2075 71.1743 30.2006 71.1165C30.1972 71.0552 30.1955 71.0007 30.1955 70.9531C30.1309 71.0518 30.0373 71.1386 29.9147 71.2135C29.7956 71.2884 29.6424 71.3258 29.4552 71.3258C29.3224 71.3258 29.2016 71.3037 29.0926 71.2594C28.9871 71.2186 28.8969 71.1641 28.822 71.096C28.7471 71.0246 28.6893 70.9446 28.6484 70.8561C28.611 70.7642 28.5923 70.6688 28.5923 70.5701ZM29.5981 70.8203C29.6696 70.8203 29.7377 70.8118 29.8024 70.7948C29.8705 70.7744 29.93 70.742 29.9811 70.6978C30.0321 70.6501 30.073 70.5905 30.1036 70.5191C30.1343 70.4442 30.1496 70.3506 30.1496 70.2382L30.1496 70.1259L29.5828 70.2127C29.4943 70.2263 29.4194 70.2587 29.3582 70.3097C29.3003 70.3574 29.2714 70.4306 29.2714 70.5293C29.2714 70.6042 29.2986 70.6722 29.3531 70.7335C29.4075 70.7914 29.4892 70.8203 29.5981 70.8203ZM33.0196 69.4162C32.9515 69.4026 32.8834 69.3958 32.8154 69.3958C32.7268 69.3958 32.6434 69.4077 32.5652 69.4315C32.4869 69.4553 32.4188 69.4945 32.3609 69.5489C32.3031 69.6034 32.2554 69.6766 32.218 69.7685C32.1839 69.857 32.1669 69.9693 32.1669 70.1055L32.1669 71.2543H31.4878L31.4878 68.7422H32.1465L32.1465 69.1149C32.1839 69.0332 32.2316 68.9669 32.2894 68.9158C32.3507 68.8613 32.4137 68.8205 32.4784 68.7933C32.5464 68.766 32.6128 68.7473 32.6775 68.7371C32.7456 68.7269 32.8068 68.7218 32.8613 68.7218C32.8885 68.7218 32.9141 68.7235 32.9379 68.7269C32.9651 68.7269 32.9924 68.7286 33.0196 68.732L33.0196 69.4162ZM34.6016 69.2936C34.5131 69.2936 34.4297 69.309 34.3514 69.3396C34.2765 69.3702 34.2102 69.4162 34.1523 69.4775C34.0944 69.5353 34.0485 69.6085 34.0144 69.697C33.9804 69.7855 33.9634 69.8859 33.9634 69.9983C33.9634 70.1106 33.9804 70.211 34.0144 70.2995C34.0485 70.388 34.0944 70.4629 34.1523 70.5242C34.2136 70.5854 34.2816 70.6314 34.3565 70.662C34.4348 70.6927 34.5182 70.708 34.6067 70.708C34.6918 70.708 34.7667 70.6961 34.8314 70.6722C34.8995 70.645 34.9573 70.611 35.005 70.5701C35.0526 70.5293 35.0901 70.4833 35.1173 70.4323C35.148 70.3812 35.1701 70.3319 35.1837 70.2842L35.7811 70.4833C35.7539 70.5888 35.7079 70.6927 35.6432 70.7948C35.582 70.8935 35.502 70.9837 35.4032 71.0654C35.3045 71.1437 35.1888 71.2067 35.056 71.2543C34.9233 71.3054 34.7735 71.3309 34.6067 71.3309C34.4229 71.3309 34.2493 71.2986 34.0859 71.2339C33.9259 71.1658 33.7864 71.0722 33.6672 70.9531C33.5481 70.8339 33.4545 70.6944 33.3864 70.5344C33.3183 70.371 33.2843 70.1923 33.2843 69.9983C33.2843 69.8042 33.3166 69.6255 33.3813 69.4621C33.4494 69.2988 33.5413 69.1592 33.657 69.0435C33.7761 68.9243 33.914 68.8324 34.0706 68.7677C34.2306 68.6997 34.4025 68.6656 34.5863 68.6656C34.7565 68.6656 34.908 68.6912 35.0407 68.7422C35.1769 68.7899 35.2943 68.8528 35.393 68.9311C35.4918 69.0094 35.5717 69.0996 35.633 69.2017C35.6943 69.3039 35.7385 69.4077 35.7658 69.5132L35.1582 69.7174C35.1275 69.6119 35.068 69.5149 34.9795 69.4264C34.8944 69.3379 34.7684 69.2936 34.6016 69.2936ZM36.9538 71.2543H36.2747L36.2747 67.5576H36.9538L36.9538 68.9516C37.0355 68.8528 37.1393 68.7831 37.2652 68.7422C37.3912 68.698 37.5137 68.6758 37.6329 68.6758C37.7928 68.6758 37.9307 68.7031 38.0464 68.7575C38.1656 68.8086 38.2626 68.8784 38.3375 68.9669C38.4158 69.0554 38.4736 69.1609 38.5111 69.2834C38.5485 69.406 38.5672 69.5353 38.5672 69.6715L38.5672 71.2543H37.8882L37.8882 69.7889C37.8882 69.646 37.8507 69.5268 37.7758 69.4315C37.7043 69.3362 37.5869 69.2885 37.4235 69.2885C37.2805 69.2885 37.1682 69.3362 37.0865 69.4315C37.0048 69.5234 36.9606 69.6391 36.9538 69.7787L36.9538 71.2543Z" fill="white" fill-opacity="0.8"/>
<path d="M10.3739 79.748L10.3739 85.2185M11.9695 79.748L11.9695 85.2185M13.2232 79.862L15.6167 85.1046" stroke="white" stroke-opacity="0.5" stroke-width="0.364713"/>
<path d="M22.8333 84.3837L22.8333 80.7636H23.538L23.538 83.7097H25.1515L25.1515 84.3837H22.8333ZM25.579 84.3837L25.579 81.8716H26.2581L26.2581 84.3837H25.579ZM25.4973 81.0496C25.4973 80.9304 25.5382 80.83 25.6199 80.7483C25.7016 80.6666 25.8003 80.6258 25.916 80.6258C26.0351 80.6258 26.1339 80.6666 26.2122 80.7483C26.2938 80.83 26.3347 80.9304 26.3347 81.0496C26.3347 81.1619 26.2938 81.2589 26.2122 81.3406C26.1339 81.4223 26.0351 81.4631 25.916 81.4631C25.8003 81.4631 25.7016 81.4223 25.6199 81.3406C25.5382 81.2589 25.4973 81.1619 25.4973 81.0496ZM26.9502 84.3837L26.9502 80.687H27.6191L27.6191 82.1473C27.677 82.0588 27.7706 81.9805 27.9 81.9125C28.0327 81.841 28.1927 81.8052 28.3799 81.8052C28.5637 81.8052 28.7271 81.8393 28.8701 81.9073C29.0131 81.972 29.1339 82.0639 29.2326 82.1831C29.3347 82.2988 29.4113 82.4367 29.4624 82.5966C29.5135 82.7566 29.539 82.9302 29.539 83.1174C29.539 83.3081 29.51 83.4851 29.4522 83.6485C29.3977 83.8084 29.3177 83.948 29.2122 84.0671C29.1101 84.1863 28.9858 84.2799 28.8395 84.348C28.6931 84.4126 28.5314 84.445 28.3544 84.445C28.1808 84.445 28.0293 84.4109 27.9 84.3429C27.774 84.2748 27.677 84.1863 27.6089 84.0774L27.6089 84.3837H26.9502ZM28.8599 83.1226C28.8599 82.8911 28.7986 82.7158 28.6761 82.5966C28.5569 82.4741 28.4106 82.4128 28.237 82.4128C28.1519 82.4128 28.0702 82.4281 27.9919 82.4588C27.917 82.4894 27.8506 82.5354 27.7927 82.5966C27.7383 82.6545 27.694 82.7277 27.66 82.8162C27.6259 82.9047 27.6089 83.0068 27.6089 83.1226C27.6089 83.2349 27.6259 83.3353 27.66 83.4238C27.694 83.5123 27.7383 83.5872 27.7927 83.6485C27.8506 83.7097 27.917 83.7574 27.9919 83.7914C28.0702 83.8221 28.1519 83.8374 28.237 83.8374C28.4106 83.8374 28.5569 83.7761 28.6761 83.6536C28.7986 83.531 28.8599 83.354 28.8599 83.1226ZM31.6184 82.5456C31.5504 82.532 31.4823 82.5252 31.4142 82.5252C31.3257 82.5252 31.2423 82.5371 31.164 82.5609C31.0857 82.5847 31.0176 82.6239 30.9598 82.6783C30.9019 82.7328 30.8542 82.806 30.8168 82.8979C30.7828 82.9864 30.7657 83.0987 30.7657 83.2349L30.7657 84.3837H30.0866L30.0866 81.8716H30.7453L30.7453 82.2443C30.7828 82.1626 30.8304 82.0963 30.8883 82.0452C30.9496 81.9907 31.0125 81.9499 31.0772 81.9227C31.1453 81.8954 31.2117 81.8767 31.2763 81.8665C31.3444 81.8563 31.4057 81.8512 31.4602 81.8512C31.4874 81.8512 31.5129 81.8529 31.5367 81.8563C31.564 81.8563 31.5912 81.858 31.6184 81.8614L31.6184 82.5456ZM31.9181 83.6995C31.9181 83.5872 31.9369 83.4885 31.9743 83.4034C32.0151 83.3149 32.0696 83.2383 32.1377 83.1736C32.2058 83.1089 32.2841 83.0579 32.3726 83.0204C32.4645 82.983 32.5632 82.9558 32.6687 82.9387L33.2865 82.8468C33.358 82.8366 33.4074 82.8162 33.4346 82.7856C33.4618 82.7515 33.4755 82.7124 33.4755 82.6681C33.4755 82.5796 33.4397 82.503 33.3682 82.4384C33.3002 82.3737 33.1946 82.3413 33.0517 82.3413C32.9019 82.3413 32.7862 82.3822 32.7045 82.4639C32.6262 82.5456 32.5819 82.6409 32.5717 82.7498L31.9692 82.6222C31.9794 82.5235 32.01 82.4247 32.0611 82.326C32.1122 82.2273 32.1819 82.1388 32.2704 82.0605C32.359 81.9822 32.4679 81.9193 32.5972 81.8716C32.7266 81.8205 32.8764 81.795 33.0466 81.795C33.244 81.795 33.4125 81.8222 33.552 81.8767C33.6916 81.9278 33.8039 81.9976 33.889 82.0861C33.9775 82.1712 34.0405 82.2716 34.078 82.3873C34.1188 82.503 34.1392 82.6239 34.1392 82.7498L34.1392 83.9855C34.1392 84.0535 34.1426 84.1267 34.1495 84.205C34.1563 84.2799 34.1631 84.3395 34.1699 84.3837H33.5469C33.5401 84.3497 33.5333 84.3037 33.5265 84.2459C33.5231 84.1846 33.5214 84.1301 33.5214 84.0825C33.4567 84.1812 33.3631 84.268 33.2406 84.3429C33.1214 84.4178 32.9683 84.4552 32.781 84.4552C32.6483 84.4552 32.5274 84.4331 32.4185 84.3888C32.313 84.348 32.2228 84.2935 32.1479 84.2254C32.073 84.1539 32.0151 84.074 31.9743 83.9855C31.9369 83.8935 31.9181 83.7982 31.9181 83.6995ZM32.924 83.9497C32.9955 83.9497 33.0636 83.9412 33.1283 83.9242C33.1963 83.9038 33.2559 83.8714 33.307 83.8272C33.358 83.7795 33.3989 83.7199 33.4295 83.6485C33.4601 83.5736 33.4755 83.48 33.4755 83.3676L33.4755 83.2553L32.9087 83.3421C32.8202 83.3557 32.7453 83.3881 32.684 83.4391C32.6262 83.4868 32.5972 83.56 32.5972 83.6587C32.5972 83.7336 32.6245 83.8016 32.6789 83.8629C32.7334 83.9208 32.8151 83.9497 32.924 83.9497ZM36.3455 82.5456C36.2774 82.532 36.2093 82.5252 36.1412 82.5252C36.0527 82.5252 35.9693 82.5371 35.891 82.5609C35.8127 82.5847 35.7447 82.6239 35.6868 82.6783C35.6289 82.7328 35.5813 82.806 35.5438 82.8979C35.5098 82.9864 35.4928 83.0987 35.4928 83.2349L35.4928 84.3837H34.8137L34.8137 81.8716H35.4723L35.4723 82.2443C35.5098 82.1626 35.5574 82.0963 35.6153 82.0452C35.6766 81.9907 35.7396 81.9499 35.8042 81.9227C35.8723 81.8954 35.9387 81.8767 36.0034 81.8665C36.0714 81.8563 36.1327 81.8512 36.1872 81.8512C36.2144 81.8512 36.2399 81.8529 36.2638 81.8563C36.291 81.8563 36.3182 81.858 36.3455 81.8614L36.3455 82.5456ZM36.9822 85.3743L37.5745 84.0671L36.5073 81.8716H37.2681L37.937 83.3421L38.5548 81.8716H39.2799L37.7021 85.3743H36.9822Z" fill="white" fill-opacity="0.5"/>
<path d="M10.8948 99.9721C11.0592 99.9721 11.1872 99.9294 11.2788 99.8441C11.3737 99.7556 11.4211 99.6386 11.4211 99.4932C11.4211 99.3415 11.3737 99.223 11.2788 99.1376C11.1872 99.0523 11.0592 99.0096 10.8948 99.0096H10.378L10.378 99.9721H10.8948ZM10.3733 100.536L10.3733 101.802H9.71897L9.71897 98.4407H10.9754C11.1398 98.4407 11.2899 98.4675 11.4258 98.5213C11.5617 98.5718 11.6787 98.6445 11.7767 98.7394C11.8747 98.831 11.9489 98.9417 11.9995 99.0713C12.0533 99.1977 12.0801 99.3368 12.0801 99.4885C12.0801 99.6402 12.0533 99.7809 11.9995 99.9104C11.9489 100.04 11.8747 100.151 11.7767 100.242C11.6787 100.334 11.5617 100.407 11.4258 100.46C11.2899 100.511 11.1398 100.536 10.9754 100.536H10.3733ZM12.5897 101.802L12.5897 98.4407H13.244L13.244 101.176H14.7422L14.7422 101.802H12.5897ZM17.1969 101.034H15.8314L15.5517 101.802H14.8595L16.1491 98.4407H16.9077L18.1878 101.802H17.4767L17.1969 101.034ZM16.0495 100.437H16.9788L16.5142 99.1661L16.0495 100.437ZM17.9251 98.4407H18.6932L19.447 99.7729L20.2009 98.4407H20.9358L19.7505 100.389L19.7505 101.802H19.0962L19.0962 100.389L17.9251 98.4407ZM21.3823 101.802L21.3823 98.4407H22.0366L22.0366 101.176H23.5349L23.5349 101.802H21.3823ZM24.003 101.802L24.003 98.4407H24.6668L24.6668 101.802H24.003ZM27.1259 99.4221C27.1164 99.3747 27.099 99.3241 27.0737 99.2704C27.0516 99.2135 27.0168 99.1613 26.9694 99.1139C26.922 99.0665 26.8604 99.027 26.7845 98.9954C26.7118 98.9638 26.6217 98.948 26.5143 98.948C26.4352 98.948 26.3625 98.9606 26.2962 98.9859C26.233 99.008 26.1776 99.0396 26.1302 99.0807C26.086 99.1187 26.0512 99.1629 26.0259 99.2135C26.0006 99.2641 25.988 99.3178 25.988 99.3747C25.988 99.4664 26.018 99.547 26.0781 99.6165C26.1381 99.6829 26.2298 99.7287 26.3531 99.754L26.8224 99.8441C26.9742 99.8725 27.1085 99.9183 27.2255 99.9816C27.3424 100.045 27.4404 100.121 27.5194 100.209C27.5984 100.294 27.6585 100.391 27.6996 100.498C27.7407 100.606 27.7612 100.718 27.7612 100.835C27.7612 100.965 27.7344 101.093 27.6806 101.219C27.6269 101.342 27.5479 101.453 27.4436 101.551C27.3424 101.646 27.216 101.723 27.0643 101.783C26.9157 101.843 26.7434 101.873 26.5475 101.873C26.323 101.873 26.1302 101.842 25.969 101.778C25.8078 101.712 25.6719 101.628 25.5613 101.527C25.4538 101.426 25.3716 101.314 25.3147 101.191C25.2578 101.064 25.2231 100.941 25.2104 100.821L25.8173 100.66C25.8236 100.742 25.8426 100.821 25.8742 100.897C25.909 100.972 25.9564 101.04 26.0164 101.1C26.0765 101.157 26.1508 101.203 26.2393 101.238C26.3278 101.273 26.4321 101.29 26.5522 101.29C26.7292 101.29 26.8635 101.252 26.9552 101.176C27.05 101.097 27.0974 100.998 27.0974 100.878C27.0974 100.78 27.0627 100.696 26.9931 100.626C26.9236 100.554 26.8224 100.505 26.6897 100.479L26.2203 100.385C25.9516 100.331 25.7367 100.222 25.5755 100.057C25.4175 99.8899 25.3384 99.6781 25.3384 99.4221C25.3384 99.2735 25.3685 99.136 25.4285 99.0096C25.4917 98.88 25.5771 98.7678 25.6845 98.673C25.792 98.5782 25.9169 98.5039 26.0591 98.4502C26.2013 98.3964 26.3515 98.3696 26.5095 98.3696C26.7118 98.3696 26.8841 98.398 27.0263 98.4549C27.1717 98.5086 27.2918 98.5782 27.3867 98.6635C27.4815 98.7489 27.5542 98.8437 27.6048 98.948C27.6585 99.0491 27.6948 99.1471 27.7138 99.2419L27.1259 99.4221ZM29.7495 99.0618L29.7495 101.802H29.0904L29.0904 99.0618H28.0284L28.0284 98.4407H30.8115L30.8115 99.0618H29.7495Z" fill="white" fill-opacity="0.8"/>
<rect width="11.6708" height="11.6707" transform="translate(9.48523 112.391)" fill="white" fill-opacity="0.1"/>
<path d="M15.3213 115.498L15.3213 120.968M12.5859 118.138H18.0566" stroke="white" stroke-opacity="0.8" stroke-width="1.09414"/>
<path d="M29.0543 120.202C28.8024 120.202 28.5641 120.158 28.3394 120.07C28.1148 119.981 27.9173 119.855 27.7471 119.692C27.5803 119.529 27.4476 119.331 27.3489 119.1C27.2502 118.868 27.2008 118.608 27.2008 118.318C27.2008 118.029 27.2502 117.769 27.3489 117.537C27.451 117.302 27.5872 117.103 27.7574 116.94C27.9276 116.776 28.1233 116.65 28.3445 116.562C28.5692 116.473 28.8024 116.429 29.0441 116.429C29.2926 116.429 29.5121 116.465 29.7027 116.536C29.8968 116.605 30.0602 116.696 30.1929 116.812C30.3291 116.924 30.438 117.052 30.5197 117.195C30.6048 117.338 30.6661 117.483 30.7035 117.629L30.0397 117.838C30.0193 117.753 29.9853 117.667 29.9376 117.578C29.89 117.49 29.8253 117.411 29.7436 117.343C29.6653 117.275 29.5683 117.219 29.4525 117.175C29.3368 117.13 29.2006 117.108 29.0441 117.108C28.9079 117.108 28.7734 117.134 28.6407 117.185C28.5079 117.233 28.3888 117.306 28.2833 117.404C28.1777 117.503 28.0926 117.629 28.028 117.782C27.9633 117.935 27.931 118.114 27.931 118.318C27.931 118.512 27.9616 118.684 28.0229 118.834C28.0875 118.98 28.1709 119.105 28.2731 119.207C28.3786 119.306 28.4977 119.382 28.6305 119.437C28.7666 119.488 28.9079 119.513 29.0543 119.513C29.2075 119.513 29.3419 119.491 29.4576 119.447C29.5768 119.399 29.6772 119.34 29.7589 119.268C29.8406 119.197 29.907 119.118 29.958 119.033C30.0091 118.945 30.0465 118.858 30.0704 118.773L30.729 118.972C30.695 119.112 30.6354 119.254 30.5503 119.401C30.4686 119.544 30.358 119.675 30.2184 119.794C30.0823 119.913 29.9172 120.012 29.7232 120.09C29.5325 120.165 29.3096 120.202 29.0543 120.202ZM32.7299 118.288C32.6618 118.274 32.5937 118.267 32.5256 118.267C32.4371 118.267 32.3537 118.279 32.2754 118.303C32.1971 118.327 32.1291 118.366 32.0712 118.421C32.0133 118.475 31.9657 118.548 31.9282 118.64C31.8942 118.729 31.8772 118.841 31.8772 118.977L31.8772 120.126H31.1981L31.1981 117.614H31.8567L31.8567 117.987C31.8942 117.905 31.9418 117.838 31.9997 117.787C32.061 117.733 32.124 117.692 32.1886 117.665C32.2567 117.638 32.3231 117.619 32.3878 117.609C32.4558 117.598 32.5171 117.593 32.5716 117.593C32.5988 117.593 32.6243 117.595 32.6482 117.598C32.6754 117.598 32.7026 117.6 32.7299 117.604L32.7299 118.288ZM34.8021 118.584C34.7987 118.523 34.785 118.463 34.7612 118.405C34.7408 118.344 34.7068 118.291 34.6591 118.247C34.6148 118.199 34.557 118.162 34.4855 118.135C34.4174 118.104 34.3357 118.089 34.2404 118.089C34.1519 118.089 34.0736 118.104 34.0055 118.135C33.9374 118.165 33.8796 118.204 33.8319 118.252C33.7843 118.3 33.7468 118.352 33.7196 118.41C33.6958 118.468 33.6821 118.526 33.6787 118.584H34.8021ZM35.4352 119.406C35.4046 119.515 35.3552 119.619 35.2871 119.717C35.2225 119.813 35.1425 119.896 35.0471 119.968C34.9518 120.039 34.8395 120.095 34.7102 120.136C34.5842 120.18 34.4446 120.202 34.2915 120.202C34.1179 120.202 33.9528 120.174 33.7962 120.116C33.6396 120.054 33.5017 119.966 33.3826 119.85C33.2635 119.734 33.1681 119.593 33.0967 119.426C33.0286 119.26 32.9945 119.071 32.9945 118.86C32.9945 118.659 33.0286 118.477 33.0967 118.313C33.1647 118.15 33.2549 118.012 33.3673 117.9C33.483 117.784 33.6158 117.695 33.7655 117.634C33.9153 117.57 34.0702 117.537 34.2302 117.537C34.6217 117.537 34.9263 117.653 35.1442 117.884C35.362 118.116 35.4709 118.434 35.4709 118.839C35.4709 118.887 35.4692 118.933 35.4658 118.977C35.4624 119.018 35.4607 119.042 35.4607 119.049H33.6634C33.6668 119.13 33.6856 119.207 33.7196 119.278C33.757 119.346 33.803 119.406 33.8575 119.457C33.9153 119.508 33.9817 119.549 34.0566 119.58C34.1315 119.607 34.2115 119.62 34.2966 119.62C34.4566 119.62 34.5808 119.585 34.6693 119.513C34.7612 119.442 34.8276 119.35 34.8684 119.237L35.4352 119.406ZM35.8668 119.442C35.8668 119.329 35.8855 119.231 35.9229 119.146C35.9638 119.057 36.0183 118.98 36.0863 118.916C36.1544 118.851 36.2327 118.8 36.3212 118.763C36.4131 118.725 36.5118 118.698 36.6174 118.681L37.2352 118.589C37.3067 118.579 37.356 118.558 37.3833 118.528C37.4105 118.494 37.4241 118.455 37.4241 118.41C37.4241 118.322 37.3884 118.245 37.3169 118.181C37.2488 118.116 37.1433 118.084 37.0003 118.084C36.8505 118.084 36.7348 118.124 36.6531 118.206C36.5748 118.288 36.5306 118.383 36.5203 118.492L35.9178 118.364C35.9281 118.266 35.9587 118.167 36.0097 118.068C36.0608 117.97 36.1306 117.881 36.2191 117.803C36.3076 117.724 36.4165 117.661 36.5459 117.614C36.6752 117.563 36.825 117.537 36.9952 117.537C37.1926 117.537 37.3611 117.564 37.5007 117.619C37.6403 117.67 37.7526 117.74 37.8377 117.828C37.9262 117.913 37.9892 118.014 38.0266 118.129C38.0675 118.245 38.0879 118.366 38.0879 118.492L38.0879 119.728C38.0879 119.796 38.0913 119.869 38.0981 119.947C38.1049 120.022 38.1117 120.082 38.1185 120.126H37.4956C37.4888 120.092 37.482 120.046 37.4752 119.988C37.4718 119.927 37.4701 119.872 37.4701 119.825C37.4054 119.923 37.3118 120.01 37.1892 120.085C37.0701 120.16 36.9169 120.197 36.7297 120.197C36.5969 120.197 36.4761 120.175 36.3672 120.131C36.2616 120.09 36.1714 120.036 36.0965 119.968C36.0217 119.896 35.9638 119.816 35.9229 119.728C35.8855 119.636 35.8668 119.54 35.8668 119.442ZM36.8727 119.692C36.9441 119.692 37.0122 119.683 37.0769 119.666C37.145 119.646 37.2045 119.614 37.2556 119.569C37.3067 119.522 37.3475 119.462 37.3782 119.391C37.4088 119.316 37.4241 119.222 37.4241 119.11L37.4241 118.997L36.8573 119.084C36.7688 119.098 36.694 119.13 36.6327 119.181C36.5748 119.229 36.5459 119.302 36.5459 119.401C36.5459 119.476 36.5731 119.544 36.6276 119.605C36.682 119.663 36.7637 119.692 36.8727 119.692ZM39.6257 117.614H40.1312L40.1312 118.216H39.6257L39.6257 119.268C39.6257 119.377 39.6495 119.454 39.6972 119.498C39.7482 119.539 39.8231 119.559 39.9219 119.559C39.9627 119.559 40.0035 119.557 40.0444 119.554C40.0852 119.551 40.1142 119.546 40.1312 119.539L40.1312 120.1C40.1006 120.114 40.0529 120.128 39.9882 120.141C39.927 120.155 39.847 120.162 39.7482 120.162C39.5032 120.162 39.3091 120.094 39.1662 119.957C39.0232 119.821 38.9517 119.631 38.9517 119.386L38.9517 118.216H38.4973L38.4973 117.614H38.6249C38.7577 117.614 38.8547 117.576 38.916 117.501C38.9806 117.423 39.013 117.328 39.013 117.216L39.013 116.863H39.6257L39.6257 117.614ZM42.3065 118.584C42.3031 118.523 42.2894 118.463 42.2656 118.405C42.2452 118.344 42.2112 118.291 42.1635 118.247C42.1192 118.199 42.0614 118.162 41.9899 118.135C41.9218 118.104 41.8401 118.089 41.7448 118.089C41.6563 118.089 41.578 118.104 41.5099 118.135C41.4419 118.165 41.384 118.204 41.3363 118.252C41.2887 118.3 41.2512 118.352 41.224 118.41C41.2002 118.468 41.1866 118.526 41.1832 118.584H42.3065ZM42.9396 119.406C42.909 119.515 42.8596 119.619 42.7915 119.717C42.7269 119.813 42.6469 119.896 42.5516 119.968C42.4562 120.039 42.3439 120.095 42.2146 120.136C42.0886 120.18 41.949 120.202 41.7959 120.202C41.6223 120.202 41.4572 120.174 41.3006 120.116C41.144 120.054 41.0061 119.966 40.887 119.85C40.7679 119.734 40.6726 119.593 40.6011 119.426C40.533 119.26 40.4989 119.071 40.4989 118.86C40.4989 118.659 40.533 118.477 40.6011 118.313C40.6691 118.15 40.7594 118.012 40.8717 117.9C40.9874 117.784 41.1202 117.695 41.27 117.634C41.4197 117.57 41.5746 117.537 41.7346 117.537C42.1261 117.537 42.4307 117.653 42.6486 117.884C42.8664 118.116 42.9754 118.434 42.9754 118.839C42.9754 118.887 42.9737 118.933 42.9702 118.977C42.9668 119.018 42.9651 119.042 42.9651 119.049H41.1678C41.1712 119.13 41.19 119.207 41.224 119.278C41.2614 119.346 41.3074 119.406 41.3619 119.457C41.4197 119.508 41.4861 119.549 41.561 119.58C41.6359 119.607 41.7159 119.62 41.801 119.62C41.961 119.62 42.0852 119.585 42.1737 119.513C42.2656 119.442 42.332 119.35 42.3728 119.237L42.9396 119.406ZM46.0738 118.155C46.2508 118.155 46.3887 118.109 46.4874 118.017C46.5895 117.922 46.6406 117.796 46.6406 117.639C46.6406 117.476 46.5895 117.348 46.4874 117.256C46.3887 117.164 46.2508 117.119 46.0738 117.119H45.5173L45.5173 118.155H46.0738ZM45.5122 118.763L45.5122 120.126H44.8075L44.8075 116.506H46.1606C46.3376 116.506 46.4993 116.535 46.6457 116.593C46.7921 116.647 46.918 116.725 47.0235 116.827C47.129 116.926 47.209 117.045 47.2635 117.185C47.3214 117.321 47.3503 117.471 47.3503 117.634C47.3503 117.798 47.3214 117.949 47.2635 118.089C47.209 118.228 47.129 118.347 47.0235 118.446C46.918 118.545 46.7921 118.623 46.6457 118.681C46.4993 118.735 46.3376 118.763 46.1606 118.763H45.5122ZM47.8225 120.126L47.8225 116.429H48.5015L48.5015 120.126H47.8225ZM49.0456 119.442C49.0456 119.329 49.0643 119.231 49.1018 119.146C49.1426 119.057 49.1971 118.98 49.2652 118.916C49.3333 118.851 49.4115 118.8 49.5 118.763C49.592 118.725 49.6907 118.698 49.7962 118.681L50.414 118.589C50.4855 118.579 50.5349 118.558 50.5621 118.528C50.5893 118.494 50.6029 118.455 50.6029 118.41C50.6029 118.322 50.5672 118.245 50.4957 118.181C50.4276 118.116 50.3221 118.084 50.1791 118.084C50.0294 118.084 49.9136 118.124 49.8319 118.206C49.7536 118.288 49.7094 118.383 49.6992 118.492L49.0967 118.364C49.1069 118.266 49.1375 118.167 49.1886 118.068C49.2396 117.97 49.3094 117.881 49.3979 117.803C49.4864 117.724 49.5954 117.661 49.7247 117.614C49.8541 117.563 50.0038 117.537 50.174 117.537C50.3715 117.537 50.54 117.564 50.6795 117.619C50.8191 117.67 50.9314 117.74 51.0165 117.828C51.105 117.913 51.168 118.014 51.2054 118.129C51.2463 118.245 51.2667 118.366 51.2667 118.492L51.2667 119.728C51.2667 119.796 51.2701 119.869 51.2769 119.947C51.2837 120.022 51.2905 120.082 51.2974 120.126H50.6744C50.6676 120.092 50.6608 120.046 50.654 119.988C50.6506 119.927 50.6489 119.872 50.6489 119.825C50.5842 119.923 50.4906 120.01 50.3681 120.085C50.2489 120.16 50.0957 120.197 49.9085 120.197C49.7758 120.197 49.6549 120.175 49.546 120.131C49.4405 120.09 49.3503 120.036 49.2754 119.968C49.2005 119.896 49.1426 119.816 49.1018 119.728C49.0643 119.636 49.0456 119.54 49.0456 119.442ZM50.0515 119.692C50.123 119.692 50.1911 119.683 50.2557 119.666C50.3238 119.646 50.3834 119.614 50.4344 119.569C50.4855 119.522 50.5264 119.462 50.557 119.391C50.5876 119.316 50.6029 119.222 50.6029 119.11L50.6029 118.997L50.0362 119.084C49.9477 119.098 49.8728 119.13 49.8115 119.181C49.7536 119.229 49.7247 119.302 49.7247 119.401C49.7247 119.476 49.7519 119.544 49.8064 119.605C49.8609 119.663 49.9426 119.692 50.0515 119.692ZM52.0403 121.116L52.6326 119.809L51.5655 117.614H52.3263L52.9951 119.084L53.613 117.614H54.338L52.7603 121.116H52.0403ZM54.7285 120.126L54.7285 116.429H55.4076L55.4076 120.126H54.7285ZM56.0997 120.126L56.0997 117.614H56.7788L56.7788 120.126H56.0997ZM56.018 116.792C56.018 116.673 56.0589 116.572 56.1406 116.49C56.2223 116.409 56.321 116.368 56.4367 116.368C56.5559 116.368 56.6546 116.409 56.7329 116.49C56.8146 116.572 56.8554 116.673 56.8554 116.792C56.8554 116.904 56.8146 117.001 56.7329 117.083C56.6546 117.164 56.5559 117.205 56.4367 117.205C56.321 117.205 56.2223 117.164 56.1406 117.083C56.0589 117.001 56.018 116.904 56.018 116.792ZM57.8846 119.299C57.8914 119.397 57.9322 119.486 58.0071 119.564C58.082 119.643 58.1943 119.682 58.3441 119.682C58.4564 119.682 58.5398 119.658 58.5943 119.61C58.6488 119.559 58.676 119.5 58.676 119.431C58.676 119.374 58.6556 119.324 58.6147 119.283C58.5739 119.239 58.5041 119.207 58.4054 119.186L58.0735 119.11C57.8284 119.055 57.6497 118.962 57.5374 118.829C57.425 118.693 57.3689 118.536 57.3689 118.359C57.3689 118.247 57.3927 118.141 57.4403 118.043C57.488 117.941 57.5527 117.854 57.6344 117.782C57.7195 117.707 57.8182 117.648 57.9305 117.604C58.0462 117.559 58.1722 117.537 58.3084 117.537C58.4854 117.537 58.6351 117.563 58.7577 117.614C58.8802 117.661 58.9789 117.723 59.0538 117.798C59.1321 117.872 59.19 117.952 59.2274 118.038C59.2649 118.119 59.287 118.194 59.2938 118.262L58.727 118.39C58.7202 118.352 58.7083 118.315 58.6913 118.278C58.6777 118.237 58.6539 118.199 58.6198 118.165C58.5858 118.131 58.5432 118.104 58.4922 118.084C58.4445 118.063 58.3849 118.053 58.3135 118.053C58.225 118.053 58.1484 118.077 58.0837 118.124C58.0224 118.172 57.9918 118.232 57.9918 118.303C57.9918 118.364 58.0122 118.414 58.0531 118.451C58.0973 118.489 58.1535 118.514 58.2216 118.528L58.579 118.604C58.8275 118.655 59.013 118.751 59.1355 118.89C59.2615 119.03 59.3244 119.192 59.3244 119.375C59.3244 119.477 59.304 119.578 59.2632 119.677C59.2257 119.775 59.1662 119.864 59.0845 119.942C59.0028 120.02 58.9007 120.083 58.7781 120.131C58.6556 120.179 58.5126 120.202 58.3492 120.202C58.1586 120.202 57.9986 120.175 57.8692 120.121C57.7399 120.066 57.6344 120 57.5527 119.922C57.471 119.843 57.4097 119.76 57.3689 119.671C57.3314 119.58 57.3093 119.498 57.3025 119.426L57.8846 119.299ZM60.7577 117.614H61.2632L61.2632 118.216H60.7577L60.7577 119.268C60.7577 119.377 60.7815 119.454 60.8292 119.498C60.8803 119.539 60.9551 119.559 61.0539 119.559C61.0947 119.559 61.1356 119.557 61.1764 119.554C61.2173 119.551 61.2462 119.546 61.2632 119.539L61.2632 120.1C61.2326 120.114 61.1849 120.128 61.1202 120.141C61.059 120.155 60.979 120.162 60.8803 120.162C60.6352 120.162 60.4411 120.094 60.2982 119.957C60.1552 119.821 60.0837 119.631 60.0837 119.386L60.0837 118.216H59.6293L59.6293 117.614H59.7569C59.8897 117.614 59.9867 117.576 60.048 117.501C60.1127 117.423 60.145 117.328 60.145 117.216L60.145 116.863H60.7577L60.7577 117.614Z" fill="white" fill-opacity="0.8"/>
<rect width="11.6708" height="11.6707" transform="translate(9.48523 128.438)" fill="white" fill-opacity="0.1"/>
<path d="M12.7995 134.273L12.8076 134.287L14.6609 136.432L14.6625 136.434C14.6783 136.453 14.75 136.537 14.854 136.618C14.9526 136.695 15.1109 136.793 15.2956 136.793C15.4821 136.793 15.6348 136.698 15.7292 136.621C15.821 136.547 15.8823 136.471 15.8993 136.449L17.7562 134.28L17.7668 134.259C18.2417 133.32 17.9877 132.488 17.3907 132.057C16.8353 131.657 16.0193 131.632 15.3409 132.149C14.4071 131.567 13.5621 131.693 13.0414 132.193C12.5133 132.701 12.3621 133.563 12.7995 134.273Z" fill="white" fill-opacity="0.8"/>
<path d="M27.4153 136.173L27.4153 132.553H28.1199L28.1199 135.499H29.7334L29.7334 136.173H27.4153ZM30.1609 136.173L30.1609 133.661H30.84L30.84 136.173H30.1609ZM30.0792 132.839C30.0792 132.719 30.1201 132.619 30.2018 132.537C30.2835 132.456 30.3822 132.415 30.4979 132.415C30.6171 132.415 30.7158 132.456 30.7941 132.537C30.8758 132.619 30.9166 132.719 30.9166 132.839C30.9166 132.951 30.8758 133.048 30.7941 133.13C30.7158 133.211 30.6171 133.252 30.4979 133.252C30.3822 133.252 30.2835 133.211 30.2018 133.13C30.1201 133.048 30.0792 132.951 30.0792 132.839ZM32.9618 134.718L33.9881 136.173H33.1559L32.4921 135.213L32.2113 135.509L32.2113 136.173H31.5322L31.5322 132.476H32.2113L32.2113 134.595L33.0793 133.661H33.9677L32.9618 134.718ZM35.8891 134.631C35.8857 134.57 35.8721 134.51 35.8482 134.452C35.8278 134.391 35.7938 134.338 35.7461 134.294C35.7019 134.246 35.644 134.209 35.5725 134.181C35.5044 134.151 35.4227 134.136 35.3274 134.136C35.2389 134.136 35.1606 134.151 35.0925 134.181C35.0245 134.212 34.9666 134.251 34.9189 134.299C34.8713 134.347 34.8338 134.399 34.8066 134.457C34.7828 134.515 34.7692 134.573 34.7658 134.631H35.8891ZM36.5222 135.453C36.4916 135.562 36.4422 135.666 36.3741 135.764C36.3095 135.86 36.2295 135.943 36.1342 136.014C36.0389 136.086 35.9265 136.142 35.7972 136.183C35.6712 136.227 35.5317 136.249 35.3785 136.249C35.2049 136.249 35.0398 136.22 34.8832 136.163C34.7266 136.101 34.5888 136.013 34.4696 135.897C34.3505 135.781 34.2552 135.64 34.1837 135.473C34.1156 135.306 34.0816 135.118 34.0816 134.907C34.0816 134.706 34.1156 134.524 34.1837 134.36C34.2518 134.197 34.342 134.059 34.4543 133.947C34.57 133.831 34.7028 133.742 34.8526 133.681C35.0023 133.616 35.1572 133.584 35.3172 133.584C35.7087 133.584 36.0133 133.7 36.2312 133.931C36.449 134.163 36.558 134.481 36.558 134.886C36.558 134.934 36.5563 134.98 36.5529 135.024C36.5495 135.065 36.5478 135.089 36.5478 135.095H34.7504C34.7538 135.177 34.7726 135.254 34.8066 135.325C34.8441 135.393 34.89 135.453 34.9445 135.504C35.0023 135.555 35.0687 135.596 35.1436 135.626C35.2185 135.654 35.2985 135.667 35.3836 135.667C35.5436 135.667 35.6678 135.632 35.7563 135.56C35.8482 135.489 35.9146 135.397 35.9555 135.284L36.5222 135.453ZM39.5323 135.718C39.5323 135.803 39.534 135.889 39.5374 135.974C39.5408 136.055 39.5459 136.122 39.5527 136.173H38.9043C38.8975 136.146 38.8907 136.105 38.8839 136.05C38.8805 135.996 38.8788 135.94 38.8788 135.882C38.8209 135.98 38.7307 136.064 38.6081 136.132C38.489 136.2 38.3443 136.234 38.1741 136.234C37.9937 136.234 37.8286 136.202 37.6788 136.137C37.5291 136.069 37.3997 135.977 37.2908 135.861C37.1853 135.742 37.1019 135.603 37.0406 135.443C36.9793 135.279 36.9487 135.102 36.9487 134.912C36.9487 134.728 36.9776 134.556 37.0355 134.396C37.0968 134.236 37.1802 134.098 37.2857 133.982C37.3912 133.863 37.5172 133.77 37.6635 133.702C37.8133 133.633 37.9767 133.599 38.1537 133.599C38.2626 133.599 38.3562 133.61 38.4345 133.63C38.5162 133.65 38.586 133.676 38.6439 133.707C38.7017 133.737 38.7477 133.771 38.7817 133.809C38.8192 133.843 38.8464 133.877 38.8634 133.911L38.8634 132.476H39.5323L39.5323 135.718ZM37.6329 134.912C37.6329 135.136 37.6908 135.312 37.8065 135.438C37.9256 135.563 38.0754 135.626 38.2558 135.626C38.4294 135.626 38.5758 135.563 38.6949 135.438C38.8141 135.312 38.8736 135.135 38.8736 134.907C38.8736 134.682 38.8141 134.51 38.6949 134.391C38.5758 134.268 38.4294 134.207 38.2558 134.207C38.0822 134.207 37.9341 134.268 37.8116 134.391C37.6925 134.513 37.6329 134.687 37.6329 134.912ZM43.319 133.61C43.3088 133.559 43.29 133.504 43.2628 133.446C43.239 133.385 43.2015 133.329 43.1505 133.278C43.0994 133.227 43.033 133.184 42.9513 133.15C42.873 133.116 42.776 133.099 42.6603 133.099C42.5752 133.099 42.4969 133.113 42.4254 133.14C42.3573 133.164 42.2978 133.198 42.2467 133.242C42.1991 133.283 42.1616 133.33 42.1344 133.385C42.1071 133.439 42.0935 133.497 42.0935 133.559C42.0935 133.657 42.1259 133.744 42.1905 133.819C42.2552 133.89 42.3539 133.94 42.4867 133.967L42.9922 134.064C43.1556 134.095 43.3002 134.144 43.4262 134.212C43.5521 134.28 43.6577 134.362 43.7428 134.457C43.8279 134.549 43.8925 134.653 43.9368 134.769C43.981 134.884 44.0032 135.005 44.0032 135.131C44.0032 135.271 43.9742 135.409 43.9164 135.545C43.8585 135.678 43.7734 135.797 43.6611 135.902C43.5521 136.004 43.416 136.088 43.2526 136.152C43.0926 136.217 42.9071 136.249 42.696 136.249C42.4544 136.249 42.2467 136.215 42.0731 136.147C41.8995 136.076 41.7531 135.986 41.634 135.877C41.5183 135.768 41.4298 135.647 41.3685 135.514C41.3072 135.378 41.2698 135.245 41.2562 135.116L41.9097 134.942C41.9165 135.031 41.9369 135.116 41.971 135.198C42.0084 135.279 42.0595 135.352 42.1242 135.417C42.1888 135.478 42.2688 135.528 42.3642 135.565C42.4595 135.603 42.5718 135.621 42.7011 135.621C42.8918 135.621 43.0364 135.58 43.1352 135.499C43.2373 135.414 43.2883 135.306 43.2883 135.177C43.2883 135.072 43.2509 134.981 43.176 134.907C43.1011 134.828 42.9922 134.775 42.8492 134.748L42.3437 134.646C42.0544 134.588 41.8229 134.471 41.6493 134.294C41.4791 134.113 41.394 133.885 41.394 133.61C41.394 133.45 41.4264 133.302 41.491 133.165C41.5591 133.026 41.651 132.905 41.7667 132.803C41.8825 132.701 42.0169 132.621 42.1701 132.563C42.3233 132.505 42.485 132.476 42.6552 132.476C42.873 132.476 43.0586 132.507 43.2117 132.568C43.3683 132.626 43.4977 132.701 43.5998 132.793C43.7019 132.885 43.7802 132.987 43.8347 133.099C43.8925 133.208 43.9317 133.313 43.9521 133.416L43.319 133.61ZM45.7206 135.632C45.8023 135.632 45.8823 135.616 45.9606 135.586C46.0389 135.555 46.1069 135.511 46.1648 135.453C46.2227 135.392 46.2686 135.317 46.3027 135.228C46.3401 135.14 46.3588 135.036 46.3588 134.917C46.3588 134.798 46.3401 134.694 46.3027 134.605C46.2686 134.517 46.2227 134.444 46.1648 134.386C46.1069 134.324 46.0389 134.278 45.9606 134.248C45.8823 134.217 45.8023 134.202 45.7206 134.202C45.6389 134.202 45.5589 134.217 45.4806 134.248C45.4023 134.278 45.3342 134.324 45.2764 134.386C45.2185 134.444 45.1708 134.517 45.1334 134.605C45.0994 134.694 45.0823 134.798 45.0823 134.917C45.0823 135.036 45.0994 135.14 45.1334 135.228C45.1708 135.317 45.2185 135.392 45.2764 135.453C45.3342 135.511 45.4023 135.555 45.4806 135.586C45.5589 135.616 45.6389 135.632 45.7206 135.632ZM45.7206 133.584C45.9078 133.584 46.0814 133.618 46.2414 133.686C46.4048 133.751 46.5443 133.843 46.6601 133.962C46.7792 134.078 46.8711 134.217 46.9358 134.381C47.0039 134.544 47.0379 134.723 47.0379 134.917C47.0379 135.111 47.0039 135.289 46.9358 135.453C46.8711 135.613 46.7792 135.752 46.6601 135.872C46.5443 135.991 46.4048 136.084 46.2414 136.152C46.0814 136.217 45.9078 136.249 45.7206 136.249C45.5334 136.249 45.3581 136.217 45.1947 136.152C45.0347 136.084 44.8951 135.991 44.776 135.872C44.6602 135.752 44.5683 135.613 44.5002 135.453C44.4356 135.289 44.4032 135.111 44.4032 134.917C44.4032 134.723 44.4356 134.544 44.5002 134.381C44.5683 134.217 44.6602 134.078 44.776 133.962C44.8951 133.843 45.0347 133.751 45.1947 133.686C45.3581 133.618 45.5334 133.584 45.7206 133.584ZM48.2572 136.173H47.5781L47.5781 133.661H48.2368L48.2368 133.972C48.3151 133.843 48.4206 133.747 48.5534 133.686C48.6895 133.625 48.8257 133.594 48.9618 133.594C49.1184 133.594 49.2529 133.622 49.3652 133.676C49.481 133.727 49.5763 133.797 49.6512 133.885C49.726 133.974 49.7805 134.079 49.8145 134.202C49.852 134.324 49.8707 134.454 49.8707 134.59L49.8707 136.173H49.1916L49.1916 134.707C49.1916 134.564 49.1542 134.445 49.0793 134.35C49.0078 134.255 48.8904 134.207 48.727 134.207C48.5772 134.207 48.4615 134.258 48.3798 134.36C48.2981 134.459 48.2572 134.581 48.2572 134.728L48.2572 136.173ZM51.0046 136.147C51.0285 136.287 51.0914 136.401 51.1936 136.489C51.2957 136.578 51.4284 136.622 51.5918 136.622C51.8063 136.622 51.9714 136.566 52.0871 136.454C52.2028 136.345 52.2607 136.168 52.2607 135.923L52.2607 135.739C52.2097 135.82 52.1263 135.895 52.0105 135.963C51.8948 136.028 51.745 136.06 51.5612 136.06C51.3944 136.06 51.2395 136.03 51.0965 135.969C50.9536 135.907 50.8293 135.822 50.7238 135.713C50.6217 135.604 50.54 135.477 50.4787 135.33C50.4209 135.181 50.3919 135.017 50.3919 134.84C50.3919 134.673 50.4209 134.517 50.4787 134.37C50.5366 134.221 50.6166 134.09 50.7187 133.977C50.8208 133.865 50.9434 133.776 51.0863 133.712C51.2293 133.647 51.3876 133.615 51.5612 133.615C51.762 133.615 51.9203 133.65 52.036 133.722C52.1518 133.793 52.2318 133.872 52.276 133.957L52.276 133.661H52.9296L52.9296 135.902C52.9296 136.076 52.9041 136.241 52.853 136.397C52.8054 136.557 52.7288 136.697 52.6232 136.816C52.5177 136.939 52.3816 137.036 52.2148 137.107C52.048 137.182 51.8471 137.219 51.6123 137.219C51.4386 137.219 51.2804 137.194 51.1374 137.143C50.9978 137.095 50.8753 137.029 50.7698 136.944C50.6642 136.862 50.5791 136.765 50.5145 136.653C50.4498 136.544 50.4089 136.43 50.3919 136.311L51.0046 136.147ZM51.6786 135.478C51.8522 135.478 51.9935 135.421 52.1024 135.305C52.2148 135.189 52.2709 135.034 52.2709 134.84C52.2709 134.646 52.2131 134.493 52.0973 134.381C51.9816 134.265 51.842 134.207 51.6786 134.207C51.5935 134.207 51.5135 134.222 51.4386 134.253C51.3672 134.28 51.3042 134.323 51.2497 134.381C51.1953 134.435 51.1527 134.501 51.1221 134.58C51.0914 134.658 51.0761 134.745 51.0761 134.84C51.0761 135.038 51.1323 135.194 51.2446 135.31C51.357 135.422 51.5016 135.478 51.6786 135.478ZM54.0351 135.346C54.0419 135.444 54.0828 135.533 54.1577 135.611C54.2326 135.689 54.3449 135.729 54.4947 135.729C54.607 135.729 54.6904 135.705 54.7449 135.657C54.7993 135.606 54.8266 135.546 54.8266 135.478C54.8266 135.421 54.8061 135.371 54.7653 135.33C54.7244 135.286 54.6547 135.254 54.5559 135.233L54.224 135.157C53.979 135.102 53.8002 135.009 53.6879 134.876C53.5756 134.74 53.5194 134.583 53.5194 134.406C53.5194 134.294 53.5432 134.188 53.5909 134.09C53.6386 133.987 53.7032 133.901 53.7849 133.829C53.87 133.754 53.9687 133.695 54.0811 133.65C54.1968 133.606 54.3228 133.584 54.4589 133.584C54.6359 133.584 54.7857 133.61 54.9082 133.661C55.0308 133.708 55.1295 133.77 55.2044 133.844C55.2827 133.919 55.3406 133.999 55.378 134.084C55.4154 134.166 55.4376 134.241 55.4444 134.309L54.8776 134.437C54.8708 134.399 54.8589 134.362 54.8419 134.324C54.8283 134.284 54.8044 134.246 54.7704 134.212C54.7363 134.178 54.6938 134.151 54.6427 134.13C54.5951 134.11 54.5355 134.1 54.464 134.1C54.3755 134.1 54.2989 134.124 54.2343 134.171C54.173 134.219 54.1424 134.278 54.1424 134.35C54.1424 134.411 54.1628 134.461 54.2036 134.498C54.2479 134.535 54.304 134.561 54.3721 134.575L54.7295 134.651C54.978 134.702 55.1635 134.798 55.2861 134.937C55.412 135.077 55.475 135.238 55.475 135.422C55.475 135.524 55.4546 135.625 55.4137 135.723C55.3763 135.822 55.3167 135.911 55.235 135.989C55.1533 136.067 55.0512 136.13 54.9287 136.178C54.8061 136.226 54.6632 136.249 54.4998 136.249C54.3091 136.249 54.1492 136.222 54.0198 136.168C53.8905 136.113 53.7849 136.047 53.7032 135.969C53.6215 135.89 53.5603 135.807 53.5194 135.718C53.482 135.626 53.4598 135.545 53.453 135.473L54.0351 135.346Z" fill="white" fill-opacity="0.8"/>
<line x1="9.84998" y1="144.303" x2="76.2278" y2="144.303" stroke="white" stroke-opacity="0.5" stroke-width="0.364713"/>
<path d="M11.3561 154.9L11.3561 158.056H10.8557L10.8557 154.9H9.64562L9.64562 154.435H12.5662L12.5662 154.9H11.3561ZM13.5033 158.056H13.0233L13.0233 154.359H13.5033L13.5033 155.886C13.5918 155.756 13.7024 155.664 13.8352 155.61C13.9679 155.555 14.1058 155.528 14.2487 155.528C14.3951 155.528 14.5228 155.554 14.6317 155.605C14.744 155.652 14.8359 155.72 14.9074 155.809C14.9823 155.894 15.0368 155.996 15.0708 156.115C15.1083 156.234 15.127 156.362 15.127 156.498L15.127 158.056H14.647L14.647 156.58C14.647 156.495 14.6368 156.415 14.6164 156.34C14.5994 156.265 14.567 156.2 14.5194 156.146C14.4751 156.088 14.4155 156.044 14.3407 156.013C14.2692 155.979 14.1807 155.962 14.0751 155.962C13.9832 155.962 13.9015 155.979 13.8301 156.013C13.762 156.047 13.7041 156.093 13.6565 156.151C13.6088 156.209 13.5714 156.277 13.5441 156.355C13.5203 156.434 13.5067 156.519 13.5033 156.611L13.5033 158.056ZM15.8755 158.056L15.8755 155.6H16.3503L16.3503 158.056H15.8755ZM15.7683 154.67C15.7683 154.572 15.8006 154.49 15.8653 154.425C15.9334 154.357 16.015 154.323 16.1104 154.323C16.2091 154.323 16.2908 154.357 16.3554 154.425C16.4235 154.49 16.4576 154.572 16.4576 154.67C16.4576 154.766 16.4235 154.847 16.3554 154.915C16.2908 154.98 16.2091 155.012 16.1104 155.012C16.015 155.012 15.9334 154.98 15.8653 154.915C15.8006 154.847 15.7683 154.766 15.7683 154.67ZM17.367 157.264C17.3841 157.394 17.4402 157.502 17.5355 157.591C17.6308 157.679 17.7653 157.724 17.9389 157.724C18.0751 157.724 18.1789 157.691 18.2504 157.627C18.3219 157.562 18.3576 157.485 18.3576 157.397C18.3576 157.319 18.3304 157.252 18.2759 157.198C18.2214 157.143 18.1431 157.104 18.041 157.08L17.6223 156.988C17.4283 156.948 17.2768 156.866 17.1679 156.743C17.0624 156.621 17.0096 156.473 17.0096 156.299C17.0096 156.194 17.0317 156.095 17.076 156.003C17.1236 155.908 17.1866 155.824 17.2649 155.753C17.3432 155.681 17.4351 155.625 17.5406 155.584C17.6496 155.543 17.7636 155.523 17.8827 155.523C18.0495 155.523 18.1891 155.547 18.3014 155.595C18.4172 155.642 18.5108 155.702 18.5823 155.773C18.6537 155.841 18.7065 155.913 18.7405 155.988C18.778 156.063 18.8035 156.127 18.8171 156.182L18.3933 156.34C18.3865 156.309 18.3746 156.27 18.3576 156.223C18.3406 156.175 18.3133 156.131 18.2759 156.09C18.2385 156.046 18.1874 156.008 18.1227 155.977C18.058 155.947 17.978 155.932 17.8827 155.932C17.7602 155.932 17.6615 155.966 17.5866 156.034C17.5117 156.098 17.4743 156.173 17.4743 156.258C17.4743 156.415 17.5679 156.514 17.7551 156.554L18.1534 156.641C18.378 156.689 18.5465 156.777 18.6588 156.907C18.7746 157.033 18.8324 157.188 18.8324 157.371C18.8324 157.46 18.8137 157.548 18.7763 157.637C18.7388 157.725 18.6827 157.807 18.6078 157.882C18.5363 157.957 18.4444 158.016 18.3321 158.061C18.2197 158.108 18.087 158.132 17.9338 158.132C17.7636 158.132 17.6172 158.108 17.4947 158.061C17.3755 158.013 17.2751 157.953 17.1934 157.882C17.1151 157.811 17.0539 157.734 17.0096 157.652C16.9688 157.567 16.9432 157.489 16.933 157.417L17.367 157.264ZM20.7371 158.056L20.7371 155.6H21.212L21.212 158.056H20.7371ZM20.6299 154.67C20.6299 154.572 20.6623 154.49 20.7269 154.425C20.795 154.357 20.8767 154.323 20.972 154.323C21.0707 154.323 21.1524 154.357 21.2171 154.425C21.2852 154.49 21.3192 154.572 21.3192 154.67C21.3192 154.766 21.2852 154.847 21.2171 154.915C21.1524 154.98 21.0707 155.012 20.972 155.012C20.8767 155.012 20.795 154.98 20.7269 154.915C20.6623 154.847 20.6299 154.766 20.6299 154.67ZM22.2287 157.264C22.2457 157.394 22.3019 157.502 22.3972 157.591C22.4925 157.679 22.627 157.724 22.8006 157.724C22.9367 157.724 23.0405 157.691 23.112 157.627C23.1835 157.562 23.2193 157.485 23.2193 157.397C23.2193 157.319 23.192 157.252 23.1376 157.198C23.0831 157.143 23.0048 157.104 22.9027 157.08L22.484 156.988C22.29 156.948 22.1385 156.866 22.0296 156.743C21.924 156.621 21.8713 156.473 21.8713 156.299C21.8713 156.194 21.8934 156.095 21.9376 156.003C21.9853 155.908 22.0483 155.824 22.1266 155.753C22.2049 155.681 22.2968 155.625 22.4023 155.584C22.5112 155.543 22.6253 155.523 22.7444 155.523C22.9112 155.523 23.0508 155.547 23.1631 155.595C23.2788 155.642 23.3724 155.702 23.4439 155.773C23.5154 155.841 23.5682 155.913 23.6022 155.988C23.6396 156.063 23.6652 156.127 23.6788 156.182L23.255 156.34C23.2482 156.309 23.2363 156.27 23.2193 156.223C23.2022 156.175 23.175 156.131 23.1376 156.09C23.1001 156.046 23.0491 156.008 22.9844 155.977C22.9197 155.947 22.8397 155.932 22.7444 155.932C22.6219 155.932 22.5231 155.966 22.4482 156.034C22.3734 156.098 22.3359 156.173 22.3359 156.258C22.3359 156.415 22.4295 156.514 22.6167 156.554L23.015 156.641C23.2397 156.689 23.4082 156.777 23.5205 156.907C23.6362 157.033 23.6941 157.188 23.6941 157.371C23.6941 157.46 23.6754 157.548 23.6379 157.637C23.6005 157.725 23.5443 157.807 23.4694 157.882C23.398 157.957 23.3061 158.016 23.1937 158.061C23.0814 158.108 22.9486 158.132 22.7955 158.132C22.6253 158.132 22.4789 158.108 22.3563 158.061C22.2372 158.013 22.1368 157.953 22.0551 157.882C21.9768 157.811 21.9155 157.734 21.8713 157.652C21.8304 157.567 21.8049 157.489 21.7947 157.417L22.2287 157.264ZM25.6958 158.056L25.6958 154.435H27.8965L27.8965 154.9H26.1962L26.1962 156.013H27.7382L27.7382 156.483H26.1962L26.1962 157.591H27.8965L27.8965 158.056H25.6958ZM29.8891 156.085C29.8176 156.074 29.7478 156.069 29.6797 156.069C29.4789 156.069 29.3155 156.129 29.1895 156.248C29.067 156.364 29.0057 156.556 29.0057 156.825L29.0057 158.056H28.5258L28.5258 155.6H28.9955L28.9955 156.029C29.0398 155.933 29.0908 155.857 29.1487 155.799C29.21 155.738 29.2729 155.69 29.3376 155.656C29.4023 155.618 29.4687 155.593 29.5368 155.579C29.6048 155.566 29.6695 155.559 29.7308 155.559C29.7648 155.559 29.7955 155.56 29.8227 155.564C29.8533 155.567 29.8755 155.571 29.8891 155.574L29.8891 156.085ZM30.3807 158.056L30.3807 155.6H30.8555L30.8555 158.056H30.3807ZM30.2735 154.67C30.2735 154.572 30.3058 154.49 30.3705 154.425C30.4385 154.357 30.5202 154.323 30.6156 154.323C30.7143 154.323 30.796 154.357 30.8606 154.425C30.9287 154.49 30.9628 154.572 30.9628 154.67C30.9628 154.766 30.9287 154.847 30.8606 154.915C30.796 154.98 30.7143 155.012 30.6156 155.012C30.5202 155.012 30.4385 154.98 30.3705 154.915C30.3058 154.847 30.2735 154.766 30.2735 154.67ZM32.7045 155.967C32.6058 155.967 32.5122 155.986 32.4237 156.023C32.3352 156.057 32.2552 156.11 32.1837 156.182C32.1156 156.253 32.0611 156.343 32.0203 156.452C31.9795 156.558 31.959 156.682 31.959 156.825C31.959 156.965 31.9795 157.089 32.0203 157.198C32.0611 157.303 32.1156 157.394 32.1837 157.468C32.2518 157.54 32.3318 157.594 32.4237 157.632C32.5156 157.669 32.6109 157.688 32.7096 157.688C32.8253 157.688 32.9224 157.671 33.0007 157.637C33.0823 157.603 33.1487 157.56 33.1998 157.509C33.2542 157.458 33.2968 157.404 33.3274 157.346C33.3581 157.285 33.3802 157.23 33.3938 157.182L33.8176 157.366C33.787 157.455 33.7427 157.545 33.6849 157.637C33.627 157.725 33.5521 157.807 33.4602 157.882C33.3683 157.957 33.2594 158.016 33.1334 158.061C33.0109 158.108 32.8696 158.132 32.7096 158.132C32.5292 158.132 32.3624 158.1 32.2092 158.035C32.0594 157.967 31.9301 157.875 31.8212 157.759C31.7122 157.64 31.6254 157.502 31.5608 157.346C31.4995 157.186 31.4689 157.012 31.4689 156.825C31.4689 156.634 31.4995 156.459 31.5608 156.299C31.6254 156.139 31.7122 156.003 31.8212 155.891C31.9335 155.775 32.0646 155.685 32.2143 155.62C32.3675 155.555 32.5309 155.523 32.7045 155.523C32.8679 155.523 33.0109 155.547 33.1334 155.595C33.2594 155.639 33.3666 155.698 33.4551 155.773C33.547 155.848 33.6202 155.933 33.6746 156.029C33.7291 156.12 33.77 156.212 33.7972 156.304L33.3632 156.488C33.3462 156.427 33.3223 156.366 33.2917 156.304C33.2611 156.243 33.2185 156.189 33.164 156.141C33.113 156.09 33.05 156.049 32.9751 156.018C32.9002 155.984 32.81 155.967 32.7045 155.967ZM38.2242 158.056L36.2686 155.104L36.2686 158.056H35.7682L35.7682 154.435H36.4371L38.2446 157.213L38.2446 154.435H38.745L38.745 158.056H38.2242ZM39.4121 157.397C39.4121 157.288 39.4308 157.191 39.4682 157.106C39.5057 157.017 39.5567 156.942 39.6214 156.881C39.6895 156.82 39.7695 156.771 39.8614 156.733C39.9533 156.696 40.052 156.668 40.1575 156.651L40.8213 156.554C40.8962 156.544 40.9456 156.522 40.9694 156.488C40.9966 156.454 41.0102 156.415 41.0102 156.371C41.0102 156.251 40.9677 156.149 40.8826 156.064C40.8009 155.976 40.6664 155.932 40.4792 155.932C40.309 155.932 40.178 155.979 40.086 156.074C39.9941 156.166 39.9397 156.284 39.9227 156.427L39.4631 156.32C39.4767 156.204 39.5108 156.097 39.5652 155.998C39.6231 155.899 39.6963 155.816 39.7848 155.748C39.8733 155.676 39.9754 155.622 40.0912 155.584C40.2103 155.543 40.3362 155.523 40.469 155.523C40.6528 155.523 40.8094 155.549 40.9387 155.6C41.0681 155.647 41.1736 155.712 41.2553 155.794C41.337 155.875 41.3966 155.971 41.434 156.08C41.4715 156.189 41.4902 156.303 41.4902 156.422L41.4902 157.652C41.4902 157.761 41.4936 157.848 41.5004 157.913C41.5072 157.977 41.514 158.025 41.5208 158.056H41.0511C41.0443 158.025 41.0375 157.984 41.0307 157.933C41.0273 157.882 41.0255 157.812 41.0255 157.724C40.9983 157.768 40.9626 157.814 40.9183 157.862C40.8741 157.909 40.8196 157.953 40.7549 157.994C40.6903 158.035 40.6137 158.068 40.5252 158.091C40.4401 158.119 40.343 158.132 40.2341 158.132C40.1082 158.132 39.9941 158.112 39.892 158.071C39.7933 158.03 39.7082 157.977 39.6367 157.913C39.5652 157.845 39.5091 157.766 39.4682 157.678C39.4308 157.589 39.4121 157.496 39.4121 157.397ZM40.3005 157.729C40.3992 157.729 40.4911 157.717 40.5762 157.693C40.6647 157.666 40.7396 157.625 40.8009 157.571C40.8656 157.513 40.9166 157.438 40.9541 157.346C40.9915 157.251 41.0102 157.137 41.0102 157.004L41.0102 156.891L40.2597 157.004C40.1575 157.021 40.0724 157.06 40.0044 157.121C39.9363 157.179 39.9022 157.262 39.9022 157.371C39.9022 157.463 39.938 157.547 40.0095 157.622C40.0809 157.693 40.178 157.729 40.3005 157.729ZM42.2481 158.056L42.2481 155.6H42.7077L42.7077 155.926C42.7859 155.79 42.8932 155.69 43.0293 155.625C43.1689 155.56 43.3102 155.528 43.4531 155.528C43.6063 155.528 43.7493 155.566 43.882 155.64C44.0182 155.715 44.1203 155.833 44.1884 155.993C44.2871 155.816 44.4096 155.695 44.556 155.63C44.7024 155.562 44.8539 155.528 45.0105 155.528C45.116 155.528 45.2198 155.547 45.3219 155.584C45.424 155.622 45.5142 155.68 45.5925 155.758C45.6742 155.833 45.7389 155.93 45.7866 156.049C45.8342 156.165 45.858 156.303 45.858 156.463L45.858 158.056H45.3832L45.3832 156.514C45.3832 156.354 45.3406 156.221 45.2555 156.115C45.1738 156.006 45.0428 155.952 44.8624 155.952C44.6922 155.952 44.5543 156.012 44.4488 156.131C44.3467 156.246 44.2956 156.393 44.2956 156.57L44.2956 158.056H43.8157L43.8157 156.514C43.8157 156.354 43.7748 156.221 43.6931 156.115C43.6114 156.006 43.4787 155.952 43.2948 155.952C43.1212 155.952 42.9817 156.01 42.8761 156.126C42.774 156.241 42.723 156.391 42.723 156.575L42.723 158.056H42.2481Z" fill="white" fill-opacity="0.5"/>
<path d="M11.4018 166.571L11.4018 169.726H10.9014L10.9014 166.571H9.69127L9.69127 166.106H12.6119L12.6119 166.571H11.4018ZM13.5489 169.726H13.069L13.069 166.029H13.5489L13.5489 167.556C13.6374 167.427 13.7481 167.335 13.8808 167.28C14.0136 167.226 14.1514 167.199 14.2944 167.199C14.4408 167.199 14.5684 167.224 14.6774 167.275C14.7897 167.323 14.8816 167.391 14.9531 167.479C15.028 167.564 15.0824 167.667 15.1165 167.786C15.1539 167.905 15.1726 168.033 15.1726 168.169L15.1726 169.726H14.6927L14.6927 168.25C14.6927 168.165 14.6825 168.085 14.662 168.01C14.645 167.936 14.6127 167.871 14.565 167.816C14.5208 167.759 14.4612 167.714 14.3863 167.684C14.3148 167.65 14.2263 167.633 14.1208 167.633C14.0289 167.633 13.9472 167.65 13.8757 167.684C13.8076 167.718 13.7498 167.764 13.7021 167.821C13.6545 167.879 13.617 167.947 13.5898 168.026C13.5659 168.104 13.5523 168.189 13.5489 168.281L13.5489 169.726ZM15.9211 169.726L15.9211 167.27H16.396L16.396 169.726H15.9211ZM15.8139 166.341C15.8139 166.242 15.8462 166.16 15.9109 166.096C15.979 166.028 16.0607 165.994 16.156 165.994C16.2547 165.994 16.3364 166.028 16.4011 166.096C16.4692 166.16 16.5032 166.242 16.5032 166.341C16.5032 166.436 16.4692 166.518 16.4011 166.586C16.3364 166.651 16.2547 166.683 16.156 166.683C16.0607 166.683 15.979 166.651 15.9109 166.586C15.8462 166.518 15.8139 166.436 15.8139 166.341ZM17.4127 168.935C17.4297 169.064 17.4859 169.173 17.5812 169.261C17.6765 169.35 17.811 169.394 17.9846 169.394C18.1207 169.394 18.2245 169.362 18.296 169.297C18.3675 169.232 18.4032 169.156 18.4032 169.067C18.4032 168.989 18.376 168.923 18.3216 168.868C18.2671 168.814 18.1888 168.775 18.0867 168.751L17.668 168.659C17.474 168.618 17.3225 168.536 17.2136 168.414C17.108 168.291 17.0553 168.143 17.0553 167.97C17.0553 167.864 17.0774 167.765 17.1216 167.673C17.1693 167.578 17.2323 167.495 17.3106 167.423C17.3889 167.352 17.4808 167.296 17.5863 167.255C17.6952 167.214 17.8092 167.193 17.9284 167.193C18.0952 167.193 18.2347 167.217 18.3471 167.265C18.4628 167.313 18.5564 167.372 18.6279 167.444C18.6994 167.512 18.7522 167.583 18.7862 167.658C18.8236 167.733 18.8492 167.798 18.8628 167.852L18.439 168.01C18.4322 167.98 18.4203 167.941 18.4032 167.893C18.3862 167.845 18.359 167.801 18.3216 167.76C18.2841 167.716 18.233 167.679 18.1684 167.648C18.1037 167.617 18.0237 167.602 17.9284 167.602C17.8058 167.602 17.7071 167.636 17.6322 167.704C17.5574 167.769 17.5199 167.844 17.5199 167.929C17.5199 168.085 17.6135 168.184 17.8007 168.225L18.199 168.312C18.4237 168.359 18.5922 168.448 18.7045 168.577C18.8202 168.703 18.8781 168.858 18.8781 169.042C18.8781 169.13 18.8594 169.219 18.8219 169.307C18.7845 169.396 18.7283 169.478 18.6534 169.552C18.582 169.627 18.49 169.687 18.3777 169.731C18.2654 169.779 18.1326 169.803 17.9794 169.803C17.8092 169.803 17.6629 169.779 17.5403 169.731C17.4212 169.683 17.3208 169.624 17.2391 169.552C17.1608 169.481 17.0995 169.404 17.0553 169.323C17.0144 169.238 16.9889 169.159 16.9787 169.088L17.4127 168.935ZM20.7828 169.726L20.7828 167.27H21.2577L21.2577 169.726H20.7828ZM20.6756 166.341C20.6756 166.242 20.7079 166.16 20.7726 166.096C20.8407 166.028 20.9224 165.994 21.0177 165.994C21.1164 165.994 21.1981 166.028 21.2628 166.096C21.3308 166.16 21.3649 166.242 21.3649 166.341C21.3649 166.436 21.3308 166.518 21.2628 166.586C21.1981 166.651 21.1164 166.683 21.0177 166.683C20.9224 166.683 20.8407 166.651 20.7726 166.586C20.7079 166.518 20.6756 166.436 20.6756 166.341ZM22.2743 168.935C22.2914 169.064 22.3475 169.173 22.4428 169.261C22.5382 169.35 22.6726 169.394 22.8462 169.394C22.9824 169.394 23.0862 169.362 23.1577 169.297C23.2292 169.232 23.2649 169.156 23.2649 169.067C23.2649 168.989 23.2377 168.923 23.1832 168.868C23.1287 168.814 23.0505 168.775 22.9483 168.751L22.5296 168.659C22.3356 168.618 22.1841 168.536 22.0752 168.414C21.9697 168.291 21.9169 168.143 21.9169 167.97C21.9169 167.864 21.9391 167.765 21.9833 167.673C22.031 167.578 22.0939 167.495 22.1722 167.423C22.2505 167.352 22.3424 167.296 22.4479 167.255C22.5569 167.214 22.6709 167.193 22.79 167.193C22.9568 167.193 23.0964 167.217 23.2087 167.265C23.3245 167.313 23.4181 167.372 23.4896 167.444C23.5611 167.512 23.6138 167.583 23.6479 167.658C23.6853 167.733 23.7108 167.798 23.7244 167.852L23.3006 168.01C23.2938 167.98 23.2819 167.941 23.2649 167.893C23.2479 167.845 23.2207 167.801 23.1832 167.76C23.1458 167.716 23.0947 167.679 23.03 167.648C22.9654 167.617 22.8854 167.602 22.79 167.602C22.6675 167.602 22.5688 167.636 22.4939 167.704C22.419 167.769 22.3816 167.844 22.3816 167.929C22.3816 168.085 22.4752 168.184 22.6624 168.225L23.0607 168.312C23.2853 168.359 23.4538 168.448 23.5662 168.577C23.6819 168.703 23.7398 168.858 23.7398 169.042C23.7398 169.13 23.721 169.219 23.6836 169.307C23.6462 169.396 23.59 169.478 23.5151 169.552C23.4436 169.627 23.3517 169.687 23.2394 169.731C23.127 169.779 22.9943 169.803 22.8411 169.803C22.6709 169.803 22.5245 169.779 22.402 169.731C22.2829 169.683 22.1824 169.624 22.1007 169.552C22.0224 169.481 21.9612 169.404 21.9169 169.323C21.8761 169.238 21.8505 169.159 21.8403 169.088L22.2743 168.935ZM25.7415 169.726L25.7415 166.106H26.2419L26.2419 169.256H27.9524L27.9524 169.726H25.7415ZM28.2734 169.067C28.2734 168.958 28.2921 168.861 28.3296 168.776C28.367 168.688 28.4181 168.613 28.4827 168.552C28.5508 168.49 28.6308 168.441 28.7227 168.404C28.8146 168.366 28.9134 168.339 29.0189 168.322L29.6827 168.225C29.7575 168.215 29.8069 168.193 29.8307 168.158C29.858 168.124 29.8716 168.085 29.8716 168.041C29.8716 167.922 29.829 167.82 29.7439 167.735C29.6622 167.646 29.5278 167.602 29.3406 167.602C29.1704 167.602 29.0393 167.65 28.9474 167.745C28.8555 167.837 28.801 167.954 28.784 168.097L28.3245 167.99C28.3381 167.874 28.3721 167.767 28.4266 167.668C28.4844 167.57 28.5576 167.486 28.6461 167.418C28.7346 167.347 28.8368 167.292 28.9525 167.255C29.0716 167.214 29.1976 167.193 29.3303 167.193C29.5142 167.193 29.6707 167.219 29.8001 167.27C29.9294 167.318 30.035 167.382 30.1167 167.464C30.1984 167.546 30.2579 167.641 30.2954 167.75C30.3328 167.859 30.3515 167.973 30.3515 168.092L30.3515 169.323C30.3515 169.432 30.3549 169.518 30.3618 169.583C30.3686 169.648 30.3754 169.695 30.3822 169.726H29.9124C29.9056 169.695 29.8988 169.655 29.892 169.603C29.8886 169.552 29.8869 169.483 29.8869 169.394C29.8597 169.438 29.8239 169.484 29.7797 169.532C29.7354 169.58 29.681 169.624 29.6163 169.665C29.5516 169.706 29.475 169.738 29.3865 169.762C29.3014 169.789 29.2044 169.803 29.0955 169.803C28.9695 169.803 28.8555 169.782 28.7534 169.741C28.6546 169.7 28.5695 169.648 28.4981 169.583C28.4266 169.515 28.3704 169.437 28.3296 169.348C28.2921 169.26 28.2734 169.166 28.2734 169.067ZM29.1618 169.399C29.2606 169.399 29.3525 169.387 29.4376 169.363C29.5261 169.336 29.601 169.295 29.6622 169.241C29.7269 169.183 29.778 169.108 29.8154 169.016C29.8529 168.921 29.8716 168.807 29.8716 168.674L29.8716 168.562L29.121 168.674C29.0189 168.691 28.9338 168.73 28.8657 168.792C28.7976 168.849 28.7636 168.933 28.7636 169.042C28.7636 169.134 28.7993 169.217 28.8708 169.292C28.9423 169.363 29.0393 169.399 29.1618 169.399ZM32.7281 169.43C32.66 169.559 32.5579 169.655 32.4217 169.716C32.2855 169.774 32.146 169.803 32.003 169.803C31.86 169.803 31.7307 169.777 31.615 169.726C31.5026 169.675 31.4073 169.605 31.329 169.517C31.2507 169.428 31.1895 169.324 31.1452 169.205C31.1044 169.086 31.0839 168.957 31.0839 168.817L31.0839 167.27H31.5639L31.5639 168.746C31.5639 168.831 31.5741 168.912 31.5945 168.991C31.615 169.066 31.6473 169.132 31.6915 169.19C31.7358 169.248 31.792 169.294 31.86 169.328C31.9315 169.362 32.0183 169.379 32.1204 169.379C32.3145 169.379 32.4591 169.321 32.5545 169.205C32.6532 169.089 32.7025 168.938 32.7025 168.751L32.7025 167.27H33.1825L33.1825 169.272C33.1825 169.37 33.1842 169.46 33.1876 169.542C33.1944 169.62 33.2012 169.682 33.208 169.726H32.7485C32.7417 169.699 32.7366 169.656 32.7332 169.598C32.7298 169.537 32.7281 169.481 32.7281 169.43ZM35.1666 169.726H34.6816L33.6859 167.27H34.2271L34.9267 169.164L35.6313 167.27H36.147L35.1666 169.726Z" fill="white" fill-opacity="0.5"/>
<path d="M13.546 181.396L13.546 178.578L12.3103 181.396H11.8508L10.6254 178.578L10.6254 181.396H10.1301L10.1301 177.776H10.8092L12.0857 180.722L13.3724 177.776H14.0413L14.0413 181.396H13.546ZM15.0181 182.423L15.6308 181.126L14.5739 178.94H15.1253L15.8912 180.636L16.6265 178.94H17.1422L15.544 182.423H15.0181ZM18.8611 181.396L18.8611 177.776H21.0618L21.0618 178.241H19.3615L19.3615 179.405H20.9035L20.9035 179.875H19.3615L19.3615 181.396H18.8611ZM21.3582 180.738C21.3582 180.629 21.3769 180.532 21.4143 180.447C21.4518 180.358 21.5028 180.283 21.5675 180.222C21.6356 180.161 21.7156 180.111 21.8075 180.074C21.8994 180.037 21.9981 180.009 22.1036 179.992L22.7674 179.895C22.8423 179.885 22.8917 179.863 22.9155 179.829C22.9427 179.795 22.9563 179.756 22.9563 179.711C22.9563 179.592 22.9138 179.49 22.8287 179.405C22.747 179.317 22.6125 179.272 22.4253 179.272C22.2551 179.272 22.1241 179.32 22.0321 179.415C21.9402 179.507 21.8858 179.625 21.8688 179.768L21.4092 179.66C21.4228 179.545 21.4569 179.437 21.5113 179.339C21.5692 179.24 21.6424 179.157 21.7309 179.089C21.8194 179.017 21.9215 178.963 22.0373 178.925C22.1564 178.884 22.2823 178.864 22.4151 178.864C22.5989 178.864 22.7555 178.889 22.8848 178.94C23.0142 178.988 23.1197 179.053 23.2014 179.134C23.2831 179.216 23.3427 179.311 23.3801 179.42C23.4176 179.529 23.4363 179.643 23.4363 179.763L23.4363 180.993C23.4363 181.102 23.4397 181.189 23.4465 181.253C23.4533 181.318 23.4601 181.366 23.4669 181.396H22.9972C22.9904 181.366 22.9836 181.325 22.9768 181.274C22.9734 181.223 22.9716 181.153 22.9716 181.065C22.9444 181.109 22.9087 181.155 22.8644 181.202C22.8202 181.25 22.7657 181.294 22.701 181.335C22.6364 181.376 22.5598 181.408 22.4713 181.432C22.3862 181.459 22.2891 181.473 22.1802 181.473C22.0543 181.473 21.9402 181.453 21.8381 181.412C21.7394 181.371 21.6543 181.318 21.5828 181.253C21.5113 181.185 21.4552 181.107 21.4143 181.019C21.3769 180.93 21.3582 180.836 21.3582 180.738ZM22.2466 181.07C22.3453 181.07 22.4372 181.058 22.5223 181.034C22.6108 181.007 22.6857 180.966 22.747 180.911C22.8117 180.853 22.8627 180.779 22.9002 180.687C22.9376 180.591 22.9563 180.477 22.9563 180.345L22.9563 180.232L22.2058 180.345C22.1036 180.362 22.0185 180.401 21.9505 180.462C21.8824 180.52 21.8483 180.603 21.8483 180.712C21.8483 180.804 21.8841 180.888 21.9556 180.962C22.027 181.034 22.1241 181.07 22.2466 181.07ZM25.3394 181.396H24.8543L23.8587 178.94H24.3999L25.0994 180.835L25.804 178.94H26.3197L25.3394 181.396ZM27.8399 181.044C27.942 181.044 28.039 181.025 28.1309 180.988C28.2228 180.95 28.3045 180.894 28.376 180.819C28.4475 180.745 28.5037 180.653 28.5445 180.544C28.5854 180.435 28.6058 180.309 28.6058 180.166C28.6058 180.023 28.5854 179.899 28.5445 179.793C28.5037 179.684 28.4475 179.592 28.376 179.517C28.3045 179.443 28.2228 179.386 28.1309 179.349C28.039 179.311 27.942 179.293 27.8399 179.293C27.7378 179.293 27.6408 179.311 27.5488 179.349C27.4569 179.386 27.3752 179.443 27.3038 179.517C27.2323 179.592 27.1761 179.684 27.1353 179.793C27.0944 179.899 27.074 180.023 27.074 180.166C27.074 180.309 27.0944 180.435 27.1353 180.544C27.1761 180.653 27.2323 180.745 27.3038 180.819C27.3752 180.894 27.4569 180.95 27.5488 180.988C27.6408 181.025 27.7378 181.044 27.8399 181.044ZM27.8399 178.864C28.0237 178.864 28.1922 178.898 28.3454 178.966C28.4986 179.031 28.6313 179.121 28.7437 179.237C28.856 179.352 28.9428 179.49 29.0041 179.65C29.0653 179.807 29.096 179.979 29.096 180.166C29.096 180.353 29.0653 180.527 29.0041 180.687C28.9428 180.847 28.856 180.985 28.7437 181.1C28.6313 181.216 28.4986 181.308 28.3454 181.376C28.1922 181.441 28.0237 181.473 27.8399 181.473C27.6561 181.473 27.4876 181.441 27.3344 181.376C27.1812 181.308 27.0485 181.216 26.9361 181.1C26.8238 180.985 26.737 180.847 26.6757 180.687C26.6145 180.527 26.5838 180.353 26.5838 180.166C26.5838 179.979 26.6145 179.807 26.6757 179.65C26.737 179.49 26.8238 179.352 26.9361 179.237C27.0485 179.121 27.1812 179.031 27.3344 178.966C27.4876 178.898 27.6561 178.864 27.8399 178.864ZM31.0724 179.426C31.0009 179.415 30.9311 179.41 30.863 179.41C30.6622 179.41 30.4988 179.47 30.3729 179.589C30.2503 179.705 30.189 179.897 30.189 180.166L30.189 181.396H29.7091L29.7091 178.94H30.1788L30.1788 179.369C30.2231 179.274 30.2741 179.197 30.332 179.14C30.3933 179.078 30.4563 179.031 30.5209 178.997C30.5856 178.959 30.652 178.934 30.7201 178.92C30.7881 178.906 30.8528 178.9 30.9141 178.9C30.9481 178.9 30.9788 178.901 31.006 178.905C31.0366 178.908 31.0588 178.912 31.0724 178.915L31.0724 179.426ZM32.2329 178.94H32.7639L32.7639 179.374H32.2329L32.2329 180.651C32.2329 180.763 32.2584 180.848 32.3095 180.906C32.3605 180.961 32.449 180.988 32.575 180.988C32.6056 180.988 32.6397 180.986 32.6771 180.983C32.7145 180.979 32.7435 180.974 32.7639 180.968L32.7639 181.376C32.7435 181.383 32.7043 181.391 32.6465 181.402C32.5886 181.415 32.5188 181.422 32.4371 181.422C32.2261 181.422 32.0593 181.362 31.9367 181.243C31.8142 181.121 31.7529 180.947 31.7529 180.722L31.7529 179.374H31.2832L31.2832 178.94H31.4159C31.5487 178.94 31.644 178.905 31.7019 178.833C31.7631 178.762 31.7938 178.672 31.7938 178.563L31.7938 178.164H32.2329L32.2329 178.94ZM33.3341 181.396L33.3341 178.94H33.809L33.809 181.396H33.3341ZM33.2269 178.011C33.2269 177.912 33.2592 177.831 33.3239 177.766C33.392 177.698 33.4737 177.664 33.569 177.664C33.6677 177.664 33.7494 177.698 33.8141 177.766C33.8822 177.831 33.9162 177.912 33.9162 178.011C33.9162 178.106 33.8822 178.188 33.8141 178.256C33.7494 178.321 33.6677 178.353 33.569 178.353C33.4737 178.353 33.392 178.321 33.3239 178.256C33.2592 178.188 33.2269 178.106 33.2269 178.011ZM36.2758 179.916C36.269 179.739 36.2094 179.591 36.0971 179.471C35.9847 179.349 35.8196 179.288 35.6018 179.288C35.4997 179.288 35.4078 179.306 35.3261 179.344C35.2478 179.378 35.1797 179.426 35.1218 179.487C35.0674 179.545 35.0231 179.611 34.9891 179.686C34.955 179.761 34.9363 179.837 34.9329 179.916H36.2758ZM36.7608 180.697C36.7268 180.806 36.6757 180.908 36.6077 181.003C36.543 181.095 36.463 181.177 36.3677 181.248C36.2758 181.316 36.1703 181.371 36.0511 181.412C35.932 181.453 35.8009 181.473 35.658 181.473C35.4946 181.473 35.338 181.444 35.1882 181.386C35.0384 181.328 34.9057 181.243 34.7899 181.131C34.6776 181.019 34.5874 180.881 34.5193 180.717C34.4546 180.554 34.4223 180.368 34.4223 180.161C34.4223 179.967 34.4546 179.791 34.5193 179.635C34.584 179.475 34.6691 179.339 34.7746 179.226C34.8835 179.111 35.0095 179.022 35.1525 178.961C35.2954 178.896 35.4435 178.864 35.5967 178.864C35.7839 178.864 35.9507 178.896 36.0971 178.961C36.2468 179.022 36.3711 179.109 36.4698 179.221C36.5685 179.334 36.6434 179.47 36.6945 179.63C36.7489 179.786 36.7762 179.96 36.7762 180.151C36.7762 180.181 36.7745 180.21 36.7711 180.237C36.7711 180.265 36.7694 180.287 36.766 180.304H34.9176C34.921 180.413 34.9414 180.513 34.9789 180.605C35.0163 180.697 35.0674 180.777 35.132 180.845C35.2001 180.91 35.2784 180.961 35.3669 180.998C35.4588 181.032 35.5558 181.049 35.658 181.049C35.8588 181.049 36.012 181.002 36.1175 180.906C36.223 180.811 36.2996 180.693 36.3473 180.554L36.7608 180.697ZM37.618 180.605C37.635 180.734 37.6912 180.843 37.7865 180.932C37.8818 181.02 38.0163 181.065 38.1899 181.065C38.326 181.065 38.4299 181.032 38.5014 180.968C38.5728 180.903 38.6086 180.826 38.6086 180.738C38.6086 180.659 38.5813 180.593 38.5269 180.539C38.4724 180.484 38.3941 180.445 38.292 180.421L37.8733 180.329C37.6793 180.288 37.5278 180.207 37.4189 180.084C37.3134 179.962 37.2606 179.814 37.2606 179.64C37.2606 179.534 37.2827 179.436 37.327 179.344C37.3746 179.249 37.4376 179.165 37.5159 179.094C37.5942 179.022 37.6861 178.966 37.7916 178.925C37.9006 178.884 38.0146 178.864 38.1337 178.864C38.3005 178.864 38.4401 178.888 38.5524 178.935C38.6682 178.983 38.7618 179.043 38.8332 179.114C38.9047 179.182 38.9575 179.254 38.9915 179.329C39.029 179.403 39.0545 179.468 39.0681 179.523L38.6443 179.681C38.6375 179.65 38.6256 179.611 38.6086 179.563C38.5916 179.516 38.5643 179.471 38.5269 179.431C38.4894 179.386 38.4384 179.349 38.3737 179.318C38.309 179.288 38.229 179.272 38.1337 179.272C38.0112 179.272 37.9125 179.306 37.8376 179.374C37.7627 179.439 37.7252 179.514 37.7252 179.599C37.7252 179.756 37.8189 179.854 38.0061 179.895L38.4043 179.982C38.629 180.03 38.7975 180.118 38.9098 180.248C39.0256 180.374 39.0834 180.528 39.0834 180.712C39.0834 180.801 39.0647 180.889 39.0273 180.978C38.9898 181.066 38.9337 181.148 38.8588 181.223C38.7873 181.298 38.6954 181.357 38.5831 181.402C38.4707 181.449 38.338 181.473 38.1848 181.473C38.0146 181.473 37.8682 181.449 37.7457 181.402C37.6265 181.354 37.5261 181.294 37.4444 181.223C37.3661 181.151 37.3049 181.075 37.2606 180.993C37.2198 180.908 37.1942 180.83 37.184 180.758L37.618 180.605ZM42.2529 178.241L42.2529 181.396H41.7525L41.7525 178.241H40.5424L40.5424 177.776H43.463L43.463 178.241H42.2529ZM44.7349 179.426C44.6634 179.415 44.5936 179.41 44.5255 179.41C44.3247 179.41 44.1613 179.47 44.0354 179.589C43.9128 179.705 43.8516 179.897 43.8516 180.166L43.8516 181.396H43.3716L43.3716 178.94H43.8413L43.8413 179.369C43.8856 179.274 43.9367 179.197 43.9945 179.14C44.0558 179.078 44.1188 179.031 44.1834 178.997C44.2481 178.959 44.3145 178.934 44.3826 178.92C44.4507 178.906 44.5153 178.9 44.5766 178.9C44.6106 178.9 44.6413 178.901 44.6685 178.905C44.6991 178.908 44.7213 178.912 44.7349 178.915L44.7349 179.426ZM45.0631 180.738C45.0631 180.629 45.0818 180.532 45.1193 180.447C45.1567 180.358 45.2078 180.283 45.2725 180.222C45.3405 180.161 45.4205 180.111 45.5124 180.074C45.6043 180.037 45.7031 180.009 45.8086 179.992L46.4724 179.895C46.5472 179.885 46.5966 179.863 46.6204 179.829C46.6477 179.795 46.6613 179.756 46.6613 179.711C46.6613 179.592 46.6187 179.49 46.5336 179.405C46.4519 179.317 46.3175 179.272 46.1303 179.272C45.9601 179.272 45.829 179.32 45.7371 179.415C45.6452 179.507 45.5907 179.625 45.5737 179.768L45.1142 179.66C45.1278 179.545 45.1618 179.437 45.2163 179.339C45.2742 179.24 45.3473 179.157 45.4358 179.089C45.5243 179.017 45.6265 178.963 45.7422 178.925C45.8613 178.884 45.9873 178.864 46.12 178.864C46.3039 178.864 46.4604 178.889 46.5898 178.94C46.7191 178.988 46.8247 179.053 46.9064 179.134C46.9881 179.216 47.0476 179.311 47.0851 179.42C47.1225 179.529 47.1412 179.643 47.1412 179.763L47.1412 180.993C47.1412 181.102 47.1446 181.189 47.1515 181.253C47.1583 181.318 47.1651 181.366 47.1719 181.396H46.7021C46.6953 181.366 46.6885 181.325 46.6817 181.274C46.6783 181.223 46.6766 181.153 46.6766 181.065C46.6494 181.109 46.6136 181.155 46.5694 181.202C46.5251 181.25 46.4707 181.294 46.406 181.335C46.3413 181.376 46.2647 181.408 46.1762 181.432C46.0911 181.459 45.9941 181.473 45.8852 181.473C45.7592 181.473 45.6452 181.453 45.5431 181.412C45.4444 181.371 45.3593 181.318 45.2878 181.253C45.2163 181.185 45.1601 181.107 45.1193 181.019C45.0818 180.93 45.0631 180.836 45.0631 180.738ZM45.9515 181.07C46.0503 181.07 46.1422 181.058 46.2273 181.034C46.3158 181.007 46.3907 180.966 46.4519 180.911C46.5166 180.853 46.5677 180.779 46.6051 180.687C46.6426 180.591 46.6613 180.477 46.6613 180.345L46.6613 180.232L45.9107 180.345C45.8086 180.362 45.7235 180.401 45.6554 180.462C45.5873 180.52 45.5533 180.603 45.5533 180.712C45.5533 180.804 45.589 180.888 45.6605 180.962C45.732 181.034 45.829 181.07 45.9515 181.07ZM48.9714 179.308C48.8727 179.308 48.7791 179.327 48.6906 179.364C48.6021 179.398 48.5221 179.451 48.4506 179.523C48.3825 179.594 48.3281 179.684 48.2872 179.793C48.2464 179.899 48.2259 180.023 48.2259 180.166C48.2259 180.305 48.2464 180.43 48.2872 180.539C48.3281 180.644 48.3825 180.734 48.4506 180.809C48.5187 180.881 48.5987 180.935 48.6906 180.973C48.7825 181.01 48.8778 181.029 48.9765 181.029C49.0923 181.029 49.1893 181.012 49.2676 180.978C49.3493 180.944 49.4156 180.901 49.4667 180.85C49.5212 180.799 49.5637 180.745 49.5944 180.687C49.625 180.625 49.6471 180.571 49.6607 180.523L50.0845 180.707C50.0539 180.796 50.0096 180.886 49.9518 180.978C49.8939 181.066 49.819 181.148 49.7271 181.223C49.6352 181.298 49.5263 181.357 49.4003 181.402C49.2778 181.449 49.1365 181.473 48.9765 181.473C48.7961 181.473 48.6293 181.441 48.4761 181.376C48.3264 181.308 48.197 181.216 48.0881 181.1C47.9792 180.981 47.8924 180.843 47.8277 180.687C47.7664 180.527 47.7358 180.353 47.7358 180.166C47.7358 179.975 47.7664 179.8 47.8277 179.64C47.8924 179.48 47.9792 179.344 48.0881 179.232C48.2004 179.116 48.3315 179.026 48.4812 178.961C48.6344 178.896 48.7978 178.864 48.9714 178.864C49.1348 178.864 49.2778 178.888 49.4003 178.935C49.5263 178.98 49.6335 179.039 49.722 179.114C49.8139 179.189 49.8871 179.274 49.9416 179.369C49.996 179.461 50.0369 179.553 50.0641 179.645L49.6301 179.829C49.6131 179.768 49.5892 179.706 49.5586 179.645C49.528 179.584 49.4854 179.529 49.431 179.482C49.3799 179.431 49.3169 179.39 49.242 179.359C49.1672 179.325 49.0769 179.308 48.9714 179.308ZM51.8056 179.977L52.8727 181.396H52.2702L51.4686 180.314L51.1265 180.656L51.1265 181.396H50.6516L50.6516 177.7H51.1265L51.1265 180.028L52.1885 178.94H52.8523L51.8056 179.977ZM53.4994 180.605C53.5165 180.734 53.5726 180.843 53.6679 180.932C53.7632 181.02 53.8977 181.065 54.0713 181.065C54.2075 181.065 54.3113 181.032 54.3828 180.968C54.4543 180.903 54.49 180.826 54.49 180.738C54.49 180.659 54.4628 180.593 54.4083 180.539C54.3538 180.484 54.2755 180.445 54.1734 180.421L53.7547 180.329C53.5607 180.288 53.4092 180.207 53.3003 180.084C53.1948 179.962 53.142 179.814 53.142 179.64C53.142 179.534 53.1641 179.436 53.2084 179.344C53.2561 179.249 53.319 179.165 53.3973 179.094C53.4756 179.022 53.5675 178.966 53.673 178.925C53.782 178.884 53.896 178.864 54.0151 178.864C54.1819 178.864 54.3215 178.888 54.4338 178.935C54.5496 178.983 54.6432 179.043 54.7147 179.114C54.7861 179.182 54.8389 179.254 54.8729 179.329C54.9104 179.403 54.9359 179.468 54.9495 179.523L54.5257 179.681C54.5189 179.65 54.507 179.611 54.49 179.563C54.473 179.516 54.4457 179.471 54.4083 179.431C54.3709 179.386 54.3198 179.349 54.2551 179.318C54.1904 179.288 54.1105 179.272 54.0151 179.272C53.8926 179.272 53.7939 179.306 53.719 179.374C53.6441 179.439 53.6067 179.514 53.6067 179.599C53.6067 179.756 53.7003 179.854 53.8875 179.895L54.2858 179.982C54.5104 180.03 54.6789 180.118 54.7913 180.248C54.907 180.374 54.9649 180.528 54.9649 180.712C54.9649 180.801 54.9461 180.889 54.9087 180.978C54.8712 181.066 54.8151 181.148 54.7402 181.223C54.6687 181.298 54.5768 181.357 54.4645 181.402C54.3521 181.449 54.2194 181.473 54.0662 181.473C53.896 181.473 53.7496 181.449 53.6271 181.402C53.5079 181.354 53.4075 181.294 53.3258 181.223C53.2475 181.151 53.1863 181.075 53.142 180.993C53.1012 180.908 53.0756 180.83 53.0654 180.758L53.4994 180.605Z" fill="white" fill-opacity="0.5"/>
<path d="M11.4931 189.911L11.4931 193.066H10.9927L10.9927 189.911H9.78258L9.78258 189.446H12.7032L12.7032 189.911H11.4931ZM13.6402 193.066H13.1603L13.1603 189.37H13.6402L13.6402 190.896C13.7287 190.767 13.8394 190.675 13.9721 190.621C14.1049 190.566 14.2427 190.539 14.3857 190.539C14.5321 190.539 14.6597 190.564 14.7687 190.615C14.881 190.663 14.9729 190.731 15.0444 190.82C15.1193 190.905 15.1737 191.007 15.2078 191.126C15.2452 191.245 15.2639 191.373 15.2639 191.509L15.2639 193.066H14.784L14.784 191.591C14.784 191.506 14.7738 191.426 14.7533 191.351C14.7363 191.276 14.704 191.211 14.6563 191.157C14.6121 191.099 14.5525 191.055 14.4776 191.024C14.4061 190.99 14.3176 190.973 14.2121 190.973C14.1202 190.973 14.0385 190.99 13.967 191.024C13.8989 191.058 13.8411 191.104 13.7934 191.162C13.7458 191.22 13.7083 191.288 13.6811 191.366C13.6573 191.444 13.6436 191.529 13.6402 191.621L13.6402 193.066ZM16.0124 193.066L16.0124 190.61H16.4873L16.4873 193.066H16.0124ZM15.9052 189.681C15.9052 189.582 15.9376 189.501 16.0022 189.436C16.0703 189.368 16.152 189.334 16.2473 189.334C16.346 189.334 16.4277 189.368 16.4924 189.436C16.5605 189.501 16.5945 189.582 16.5945 189.681C16.5945 189.776 16.5605 189.858 16.4924 189.926C16.4277 189.991 16.346 190.023 16.2473 190.023C16.152 190.023 16.0703 189.991 16.0022 189.926C15.9376 189.858 15.9052 189.776 15.9052 189.681ZM17.504 192.275C17.521 192.404 17.5772 192.513 17.6725 192.602C17.7678 192.69 17.9023 192.734 18.0759 192.734C18.212 192.734 18.3158 192.702 18.3873 192.637C18.4588 192.573 18.4946 192.496 18.4946 192.408C18.4946 192.329 18.4673 192.263 18.4129 192.209C18.3584 192.154 18.2801 192.115 18.178 192.091L17.7593 191.999C17.5653 191.958 17.4138 191.877 17.3049 191.754C17.1993 191.632 17.1466 191.483 17.1466 191.31C17.1466 191.204 17.1687 191.106 17.213 191.014C17.2606 190.918 17.3236 190.835 17.4019 190.764C17.4802 190.692 17.5721 190.636 17.6776 190.595C17.7865 190.554 17.9006 190.534 18.0197 190.534C18.1865 190.534 18.3261 190.558 18.4384 190.605C18.5541 190.653 18.6477 190.713 18.7192 190.784C18.7907 190.852 18.8435 190.924 18.8775 190.998C18.9149 191.073 18.9405 191.138 18.9541 191.192L18.5303 191.351C18.5235 191.32 18.5116 191.281 18.4946 191.233C18.4775 191.186 18.4503 191.141 18.4129 191.101C18.3754 191.056 18.3244 191.019 18.2597 190.988C18.195 190.958 18.115 190.942 18.0197 190.942C17.8972 190.942 17.7984 190.976 17.7236 191.044C17.6487 191.109 17.6112 191.184 17.6112 191.269C17.6112 191.426 17.7048 191.524 17.892 191.565L18.2903 191.652C18.515 191.7 18.6835 191.788 18.7958 191.917C18.9115 192.043 18.9694 192.198 18.9694 192.382C18.9694 192.471 18.9507 192.559 18.9132 192.648C18.8758 192.736 18.8196 192.818 18.7447 192.893C18.6733 192.968 18.5814 193.027 18.469 193.071C18.3567 193.119 18.2239 193.143 18.0708 193.143C17.9006 193.143 17.7542 193.119 17.6316 193.071C17.5125 193.024 17.4121 192.964 17.3304 192.893C17.2521 192.821 17.1908 192.745 17.1466 192.663C17.1057 192.578 17.0802 192.5 17.07 192.428L17.504 192.275ZM20.8741 193.066L20.8741 190.61H21.349L21.349 193.066H20.8741ZM20.7669 189.681C20.7669 189.582 20.7992 189.501 20.8639 189.436C20.932 189.368 21.0137 189.334 21.109 189.334C21.2077 189.334 21.2894 189.368 21.3541 189.436C21.4221 189.501 21.4562 189.582 21.4562 189.681C21.4562 189.776 21.4221 189.858 21.3541 189.926C21.2894 189.991 21.2077 190.023 21.109 190.023C21.0137 190.023 20.932 189.991 20.8639 189.926C20.7992 189.858 20.7669 189.776 20.7669 189.681ZM22.3657 192.275C22.3827 192.404 22.4388 192.513 22.5341 192.602C22.6295 192.69 22.7639 192.734 22.9375 192.734C23.0737 192.734 23.1775 192.702 23.249 192.637C23.3205 192.573 23.3562 192.496 23.3562 192.408C23.3562 192.329 23.329 192.263 23.2745 192.209C23.2201 192.154 23.1418 192.115 23.0396 192.091L22.621 191.999C22.4269 191.958 22.2754 191.877 22.1665 191.754C22.061 191.632 22.0082 191.483 22.0082 191.31C22.0082 191.204 22.0304 191.106 22.0746 191.014C22.1223 190.918 22.1852 190.835 22.2635 190.764C22.3418 190.692 22.4337 190.636 22.5393 190.595C22.6482 190.554 22.7622 190.534 22.8814 190.534C23.0482 190.534 23.1877 190.558 23.3 190.605C23.4158 190.653 23.5094 190.713 23.5809 190.784C23.6524 190.852 23.7051 190.924 23.7392 190.998C23.7766 191.073 23.8021 191.138 23.8158 191.192L23.392 191.351C23.3851 191.32 23.3732 191.281 23.3562 191.233C23.3392 191.186 23.312 191.141 23.2745 191.101C23.2371 191.056 23.186 191.019 23.1213 190.988C23.0567 190.958 22.9767 190.942 22.8814 190.942C22.7588 190.942 22.6601 190.976 22.5852 191.044C22.5103 191.109 22.4729 191.184 22.4729 191.269C22.4729 191.426 22.5665 191.524 22.7537 191.565L23.152 191.652C23.3766 191.7 23.5451 191.788 23.6575 191.917C23.7732 192.043 23.8311 192.198 23.8311 192.382C23.8311 192.471 23.8123 192.559 23.7749 192.648C23.7375 192.736 23.6813 192.818 23.6064 192.893C23.5349 192.968 23.443 193.027 23.3307 193.071C23.2184 193.119 23.0856 193.143 22.9324 193.143C22.7622 193.143 22.6158 193.119 22.4933 193.071C22.3742 193.024 22.2737 192.964 22.192 192.893C22.1138 192.821 22.0525 192.745 22.0082 192.663C21.9674 192.578 21.9419 192.5 21.9316 192.428L22.3657 192.275ZM25.8328 193.066L25.8328 189.446H26.3332L26.3332 192.597H28.0437L28.0437 193.066H25.8328ZM30.7492 192.055H29.1459L28.763 193.066H28.2268L29.6667 189.446H30.2437L31.6836 193.066H31.1424L30.7492 192.055ZM29.3246 191.591H30.5705L29.9425 189.967L29.3246 191.591ZM34.7111 193.066L32.7555 190.115L32.7555 193.066H32.2552L32.2552 189.446H32.924L34.7316 192.224L34.7316 189.446H35.2319L35.2319 193.066H34.7111ZM35.8316 189.446H36.4341L37.3736 191.06L38.3131 189.446H38.885L37.6085 191.519L37.6085 193.066H37.1081L37.1081 191.519L35.8316 189.446Z" fill="white" fill-opacity="0.5"/>
</svg>
