<svg width="31" height="33" viewBox="0 0 31 33" fill="none" xmlns="http://www.w3.org/2000/svg">
<g clip-path="url(#clip0)">
<path d="M1.4375 26.1597H10.3025C15.9925 26.1597 17.9663 18.1103 12.9363 15.2223C16.3125 12.0837 14.2225 6.15967 9.6925 6.15967H1.4375C0.92 6.15967 0.5 6.60767 0.5 7.15967V25.1597C0.5 25.7117 0.92 26.1597 1.4375 26.1597ZM2.375 8.15967H9.6925C13.7063 8.15967 13.7113 14.517 9.6925 14.517H2.375V8.15967ZM2.375 16.517H10.3025C15.1287 16.517 15.1287 24.1597 10.3025 24.1597H2.375V16.517Z" fill="white"/>
<path d="M23.4675 11.3022C19.3938 11.3022 16.2738 15.1529 16.4238 18.1809C16.115 22.5543 19.42 26.1596 23.4675 26.1596C25.9825 26.1596 28.3275 24.7396 29.5863 22.4516C30.215 21.3089 28.5975 20.3009 27.97 21.4383C27.0463 23.1169 25.32 24.1596 23.4675 24.1596C20.7338 24.1596 18.5113 21.9356 18.3113 19.1316C20.115 19.1543 23.4813 18.8809 29.545 19.0876C29.565 19.0876 29.5788 19.0769 29.5975 19.0769C32.0975 18.9569 29.3613 11.3022 23.4675 11.3022ZM18.5575 17.0329C20.165 11.9809 26.955 12.1316 28.42 17.1183C23.34 17.2476 20.3 17.0303 18.5575 17.0329Z" fill="white"/>
<path d="M27.135 9.44482C28.3762 9.44482 28.375 7.44482 27.135 7.44482H19.7975C18.5562 7.44482 18.5575 9.44482 19.7975 9.44482H27.135Z" fill="white"/>
</g>
<defs>
<clipPath id="clip0">
<rect width="30" height="32" fill="white" transform="translate(0.5 0.826172)"/>
</clipPath>
</defs>
</svg>
