<svg width="24" height="24" viewBox="0 0 24 24" fill="none" xmlns="http://www.w3.org/2000/svg">
<g clip-path="url(#clip0)">
<path d="M15.8531 16.1503L12.8532 13.1454C12.6583 12.9499 12.3417 12.9495 12.1462 13.1445C12.0521 13.2383 11.9993 13.3656 11.9993 13.4984V20.5031C11.9994 20.7182 12.1372 20.9091 12.3413 20.9771C12.3922 20.9943 12.4455 21.0031 12.4993 21.0031C12.6566 21.0031 12.8048 20.929 12.8992 20.8031L15.8991 16.8033C16.0482 16.6044 16.0286 16.3263 15.8531 16.1503Z" fill="white" fill-opacity="0.3"/>
<path d="M13.6572 15.0294L10.6573 14.0295C10.3954 13.9419 10.1121 14.0832 10.0246 14.3451C9.99027 14.4478 9.99017 14.5588 10.0243 14.6615L12.0243 20.6612C12.0924 20.8657 12.2838 21.0035 12.4992 21.0032H12.5302C12.7561 20.9891 12.9444 20.8251 12.9892 20.6032L13.9892 15.6034C14.0395 15.3557 13.8971 15.1093 13.6572 15.0294Z" fill="white" fill-opacity="0.6"/>
<path d="M23.7848 1.09892C23.6255 0.987505 23.4161 0.978553 23.2479 1.07591L4.24865 12.0755C4.00978 12.214 3.92841 12.5199 4.06692 12.7588C4.12814 12.8644 4.22587 12.9439 4.34164 12.9824L13.3213 15.9763L20.301 18.9682C20.5549 19.0767 20.8487 18.9589 20.9573 18.705C20.9723 18.6698 20.9833 18.6329 20.9899 18.5952L23.9898 1.59587C24.0239 1.40449 23.944 1.21062 23.7848 1.09892Z" fill="white" fill-opacity="0.3"/>
<path d="M23.9058 1.79903C24.0671 1.57493 24.0162 1.26248 23.7921 1.10114C23.5925 0.957474 23.318 0.980301 23.1449 1.15504L10.1064 14.9065L13.8692 16.2064L23.9058 1.79903Z" fill="white" fill-opacity="0.6"/>
<path d="M1.22178 19.6983C1.09621 19.6985 0.975232 19.6513 0.882798 19.5664C0.63348 19.3371 0.388147 19.1014 0.146844 18.8594C-0.0486634 18.6641 -0.0488978 18.3474 0.146329 18.1519C0.341555 17.9564 0.658276 17.9562 0.853784 18.1514C1.08576 18.3834 1.32176 18.6104 1.56077 18.8304C1.76401 19.0173 1.77723 19.3336 1.5903 19.5368C1.49548 19.6399 1.36179 19.6985 1.22178 19.6983Z" fill="white" fill-opacity="0.6"/>
<path d="M8.03352 22.9931C7.55176 22.9916 7.07136 22.9417 6.59958 22.8441C6.32706 22.7996 6.14224 22.5426 6.18682 22.27C6.23135 21.9975 6.4884 21.8127 6.76092 21.8573C6.7739 21.8594 6.78684 21.862 6.79959 21.8652C7.20659 21.9492 7.62099 21.9921 8.03652 21.9932H8.03952H8.26451C8.52508 21.9683 8.75654 22.1594 8.78143 22.4199C8.78316 22.438 8.78382 22.4561 8.78349 22.4742C8.79362 22.75 8.57833 22.9819 8.30253 22.9922H8.04154L8.03352 22.9931ZM4.45069 22.0362C4.37063 22.0362 4.29179 22.017 4.22068 21.9802C3.72917 21.723 3.25458 21.4348 2.79972 21.1172C2.57815 20.9524 2.53212 20.6392 2.69688 20.4176C2.85414 20.2062 3.14846 20.153 3.3697 20.2962C3.7886 20.5908 4.22616 20.8581 4.67966 21.0962C4.92485 21.2232 5.02071 21.5249 4.89373 21.7701C4.80781 21.936 4.63654 22.0402 4.44966 22.0402L4.45069 22.0362Z" fill="white" fill-opacity="0.6"/>
<path d="M10.6044 22.4572C10.3283 22.4595 10.1026 22.2375 10.1004 21.9614C10.0987 21.7595 10.2187 21.5764 10.4044 21.4973C10.6923 21.3741 10.9718 21.2325 11.2414 21.0733C11.4826 20.9389 11.7871 21.0255 11.9215 21.2667C12.0512 21.4996 11.9755 21.7932 11.7494 21.9343C11.4427 22.1155 11.1248 22.2769 10.7974 22.4172C10.7363 22.4432 10.6708 22.4568 10.6044 22.4572Z" fill="white" fill-opacity="0.6"/>
</g>
<defs>
<clipPath id="clip0">
<rect width="24" height="24" fill="white"/>
</clipPath>
</defs>
</svg>
