<svg width="24" height="25" viewBox="0 0 24 25" fill="none" xmlns="http://www.w3.org/2000/svg">
<path d="M12 24.501C8.79474 24.501 5.78119 23.2275 3.51471 20.9152C1.24823 18.6029 0 15.5284 0 12.2583C0 8.98822 1.24823 5.91373 3.51471 3.60141C5.78119 1.2891 8.79474 0.015625 12 0.015625C15.2053 0.015625 18.2188 1.2891 20.4853 3.60141C22.7518 5.91373 24 8.98822 24 12.2583C24 15.5284 22.7518 18.6029 20.4853 20.9152C18.2188 23.2275 15.2053 24.501 12 24.501ZM12 1.92854C6.41711 1.92854 1.875 6.56251 1.875 12.2583C1.875 17.9541 6.41711 22.5881 12 22.5881C17.5829 22.5881 22.125 17.9541 22.125 12.2583C22.125 6.56251 17.5829 1.92854 12 1.92854ZM16.9387 17.2969L15.6129 15.9442C13.6207 17.9767 10.3793 17.9767 8.38715 15.9442C6.39496 13.9117 6.39496 10.6049 8.38715 8.57238C10.3793 6.53991 13.6207 6.53991 15.6129 8.57238L16.9387 7.2197C14.2154 4.44149 9.78442 4.44149 7.06128 7.2197C4.33813 9.99811 4.33813 14.5187 7.06128 17.2969C8.42285 18.686 10.2114 19.3806 12 19.3806C13.7884 19.3806 15.5771 18.686 16.9387 17.2969Z" fill="white"/>
</svg>
