<svg width="33" height="33" viewBox="0 0 33 33" fill="none" xmlns="http://www.w3.org/2000/svg">
<g clip-path="url(#clip0)">
<path d="M32.4397 18.2144C32.479 17.7551 32.5 17.2925 32.5 16.8264C32.5 12.5525 30.8357 8.53442 27.8137 5.51245C24.7917 2.49048 20.7737 0.826172 16.5 0.826172C12.2263 0.826172 8.20825 2.49048 5.18628 5.51245C2.16431 8.53442 0.5 12.5525 0.5 16.8264C0.5 21.1001 2.16431 25.1179 5.18628 28.1399C8.20825 31.1619 12.2263 32.8262 16.5 32.8262C20.7737 32.8262 24.7917 31.1619 27.8137 28.1399C30.4814 25.4722 32.0903 22.0278 32.4312 18.3169C32.4358 18.2827 32.439 18.2485 32.4397 18.2144ZM30.6235 16.9314C28.6992 16.3877 26.7073 16.1118 24.6851 16.1118C23.321 16.1118 21.9761 16.2393 20.6643 16.4849C20.458 16.0042 20.2461 15.5256 20.0276 15.0498C19.7334 14.4099 19.4272 13.7756 19.1113 13.146C22.1414 11.8369 24.9863 10.1465 27.6001 8.10059C29.4939 10.5044 30.625 13.5356 30.625 16.8264C30.625 16.8616 30.6238 16.8962 30.6235 16.9314ZM26.3411 6.7041C23.8457 8.64038 21.1179 10.2375 18.2363 11.4675C16.6682 8.57007 14.866 5.79688 12.8503 3.18018C14.0151 2.86841 15.2383 2.70117 16.5 2.70117C20.323 2.70117 23.7954 4.22852 26.3411 6.7041ZM10.9783 3.82568C13.0454 6.45215 14.884 9.24463 16.4768 12.1663C12.4258 13.6555 8.11353 14.4375 3.74609 14.4375C3.35791 14.4375 2.96875 14.4309 2.58105 14.4189C3.40503 9.64087 6.63696 5.67651 10.9783 3.82568ZM2.375 16.8264C2.375 16.646 2.37939 16.4668 2.38623 16.2881C2.83838 16.3037 3.29297 16.3125 3.74585 16.3125C8.31055 16.3125 12.7795 15.5261 17.0291 13.9756C17.1401 13.9351 17.251 13.8936 17.3616 13.8521C17.8706 14.8611 18.3508 15.884 18.8018 16.9194C13.5984 18.3765 9.06006 21.7368 6.1499 26.4272C3.80884 23.9055 2.375 20.5305 2.375 16.8264ZM7.54517 27.7417C10.2349 23.2166 14.5605 19.9944 19.5293 18.6646C20.9255 22.1694 21.989 25.8057 22.6953 29.5178C20.8237 30.4351 18.7209 30.9512 16.5 30.9512C13.1038 30.9512 9.98413 29.7461 7.54517 27.7417ZM24.4111 28.5222C23.7063 25.02 22.6956 21.5845 21.3926 18.2605C22.47 18.0803 23.5706 17.9868 24.6851 17.9868C26.6631 17.9868 28.6089 18.2749 30.4805 18.843C29.9036 22.8606 27.6304 26.3379 24.4111 28.5222Z" fill="white"/>
</g>
<defs>
<clipPath id="clip0">
<rect width="32" height="32" fill="white" transform="translate(0.5 0.826172)"/>
</clipPath>
</defs>
</svg>
