<svg width="33" height="33" viewBox="0 0 33 33" fill="none" xmlns="http://www.w3.org/2000/svg">
<g clip-path="url(#clip0)">
<path d="M23.8378 0.826172H9.16209C4.38573 0.826172 0.5 4.71191 0.5 9.48827V24.1643C0.5 28.9404 4.38573 32.8261 9.16209 32.8261H23.8381C28.6142 32.8261 32.4999 28.9404 32.4999 24.1643V9.48827C32.4999 4.71191 28.6142 0.826172 23.8378 0.826172V0.826172ZM30.624 24.1643C30.624 27.906 27.5798 30.9501 23.8378 30.9501H9.16209C5.42016 30.9501 2.37597 27.906 2.37597 24.1643V9.48827C2.37597 5.74633 5.42016 2.70214 9.16209 2.70214H23.8381C27.5798 2.70214 30.624 5.74633 30.624 9.48827V24.1643Z" fill="white"/>
<path d="M16.5 8.07617C11.6753 8.07617 7.75024 12.0012 7.75024 16.8259C7.75024 21.6506 11.6753 25.5757 16.5 25.5757C21.3247 25.5757 25.2497 21.6506 25.2497 16.8259C25.2497 12.0012 21.3247 8.07617 16.5 8.07617ZM16.5 23.6997C12.71 23.6997 9.62622 20.6162 9.62622 16.8259C9.62622 13.0359 12.71 9.95214 16.5 9.95214C20.2903 9.95214 23.3737 13.0359 23.3737 16.8259C23.3737 20.6162 20.2903 23.6997 16.5 23.6997Z" fill="white"/>
<path d="M25.4589 4.96875C24.0331 4.96875 22.8735 6.12866 22.8735 7.55419C22.8735 8.97997 24.0331 10.1399 25.4589 10.1399C26.8847 10.1399 28.0446 8.97997 28.0446 7.55419C28.0446 6.12842 26.8847 4.96875 25.4589 4.96875ZM25.4589 8.26367C25.0678 8.26367 24.7494 7.94531 24.7494 7.55419C24.7494 7.16284 25.0678 6.84472 25.4589 6.84472C25.8503 6.84472 26.1686 7.16284 26.1686 7.55419C26.1686 7.94531 25.8503 8.26367 25.4589 8.26367Z" fill="white"/>
</g>
<defs>
<clipPath id="clip0">
<rect width="32" height="32" fill="white" transform="translate(0.5 0.826172)"/>
</clipPath>
</defs>
</svg>
