<svg width="32" height="32" viewBox="0 0 32 32" fill="none" xmlns="http://www.w3.org/2000/svg">
<rect width="32" height="32" rx="5.56522" fill="white" fill-opacity="0.4"/>
<g clip-path="url(#clip0)">
<path d="M10.4727 12.114H6.54347C6.20576 12.114 5.93205 12.3879 5.93205 12.7254V25.8234C5.93205 26.1611 6.20576 26.4348 6.54347 26.4348H10.4727C10.8105 26.4348 11.0842 26.1611 11.0842 25.8234V12.7254C11.0842 12.3879 10.8105 12.114 10.4727 12.114ZM9.86134 25.212H7.15488V13.3369H9.86134V25.212Z" fill="white"/>
<path d="M8.50827 5.56523C7.08769 5.56523 5.93205 6.72087 5.93205 8.14113C5.93205 9.56171 7.08769 10.7172 8.50827 10.7172C9.92869 10.7172 11.0842 9.56155 11.0842 8.14113C11.0842 6.72087 9.92869 5.56523 8.50827 5.56523ZM8.50827 9.49436C7.76199 9.49436 7.15488 8.8874 7.15488 8.14113C7.15488 7.39501 7.76199 6.78806 8.50827 6.78806C9.25438 6.78806 9.86134 7.39501 9.86134 8.14113C9.86134 8.8874 9.25438 9.49436 8.50827 9.49436Z" fill="white"/>
<path d="M20.2966 12.0276C19.3672 12.0276 18.4512 12.2516 17.6309 12.6707C17.603 12.3588 17.3411 12.114 17.0219 12.114H13.0923C12.7547 12.114 12.4809 12.3879 12.4809 12.7254V25.8234C12.4809 26.1611 12.7547 26.4348 13.0923 26.4348H17.0219C17.3596 26.4348 17.6333 26.1611 17.6333 25.8234V18.6195C17.6333 17.6929 18.3874 16.9389 19.314 16.9389C20.2407 16.9389 20.9945 17.6929 20.9945 18.6195V25.8234C20.9945 26.1611 21.2683 26.4348 21.6059 26.4348H25.5353C25.873 26.4348 26.1467 26.1611 26.1467 25.8234V17.8777C26.1467 14.6519 23.5224 12.0276 20.2966 12.0276ZM24.9239 25.212H22.2175V18.6195C22.2175 17.0186 20.915 15.7161 19.3142 15.7161C17.7131 15.7161 16.4105 17.0186 16.4105 18.6195V25.212H13.7039V13.3369H16.4105V13.7886C16.4105 14.0237 16.5453 14.2381 16.7574 14.3398C16.9693 14.4415 17.2209 14.4126 17.4045 14.2656C18.2324 13.6015 19.2327 13.2504 20.2966 13.2504C22.8481 13.2504 24.9239 15.3262 24.9239 17.8777V25.212Z" fill="white"/>
</g>
<defs>
<clipPath id="clip0">
<rect width="20.8696" height="20.8696" fill="white" transform="translate(5.56522 5.56523)"/>
</clipPath>
</defs>
</svg>
