<svg width="33" height="33" viewBox="0 0 33 33" fill="none" xmlns="http://www.w3.org/2000/svg">
<g clip-path="url(#clip0)">
<path d="M8.0249 10.8677H2C1.48218 10.8677 1.0625 11.2876 1.0625 11.8052V31.8887C1.0625 32.4065 1.48218 32.8262 2 32.8262H8.0249C8.54272 32.8262 8.9624 32.4065 8.9624 31.8887V11.8052C8.9624 11.2876 8.54272 10.8677 8.0249 10.8677ZM7.0874 30.9512H2.9375V12.7427H7.0874V30.9512Z" fill="white"/>
<path d="M5.0127 0.826172C2.83447 0.826172 1.0625 2.59814 1.0625 4.77588C1.0625 6.9541 2.83447 8.72583 5.0127 8.72583C7.19067 8.72583 8.9624 6.95386 8.9624 4.77588C8.9624 2.59814 7.19067 0.826172 5.0127 0.826172ZM5.0127 6.85083C3.86841 6.85083 2.9375 5.92017 2.9375 4.77588C2.9375 3.63184 3.86841 2.70117 5.0127 2.70117C6.15674 2.70117 7.0874 3.63184 7.0874 4.77588C7.0874 5.92017 6.15674 6.85083 5.0127 6.85083Z" fill="white"/>
<path d="M23.0881 10.7349C21.6631 10.7349 20.2585 11.0784 19.0007 11.7209C18.958 11.2427 18.5564 10.8674 18.0669 10.8674H12.0415C11.5239 10.8674 11.104 11.2874 11.104 11.8049V31.8884C11.104 32.4062 11.5239 32.8259 12.0415 32.8259H18.0669C18.5847 32.8259 19.0044 32.4062 19.0044 31.8884V20.8425C19.0044 19.4216 20.1606 18.2656 21.5815 18.2656C23.0024 18.2656 24.1582 19.4216 24.1582 20.8425V31.8884C24.1582 32.4062 24.5781 32.8259 25.0957 32.8259H31.1208C31.6387 32.8259 32.0583 32.4062 32.0583 31.8884V19.7051C32.0583 14.7588 28.0344 10.7349 23.0881 10.7349ZM30.1833 30.9509H26.0334V20.8425C26.0334 18.3877 24.0364 16.3906 21.5818 16.3906C19.1267 16.3906 17.1294 18.3877 17.1294 20.8425V30.9509H12.9792V12.7424H17.1294V13.4351C17.1294 13.7957 17.3362 14.1243 17.6614 14.2803C17.9863 14.4363 18.3721 14.3918 18.6536 14.1665C19.9231 13.1482 21.4568 12.6099 23.0881 12.6099C27.0005 12.6099 30.1833 15.7927 30.1833 19.7051V30.9509Z" fill="white"/>
</g>
<defs>
<clipPath id="clip0">
<rect width="32" height="32" fill="white" transform="translate(0.5 0.826172)"/>
</clipPath>
</defs>
</svg>
