<svg width="33" height="33" viewBox="0 0 33 33" fill="none" xmlns="http://www.w3.org/2000/svg">
<g clip-path="url(#clip0)">
<path d="M0.950693 6.72223L4.41336 8.99957V23.4889L0.79736 27.0569C0.162694 27.6849 0.60936 28.7689 1.50003 28.7689H9.32536C10.2147 28.7689 10.664 27.6862 10.028 27.0569L6.41203 23.4889V12.9396C10.12 20.8276 13.7347 28.5036 13.648 28.3289C14.0134 29.0702 15.1694 29.0902 15.4827 28.2289L15.484 28.2262C15.484 28.2262 15.4854 28.2249 15.4854 28.2236C16.352 25.8329 18.2107 20.7062 18.092 21.0316C18.1587 20.8462 21.32 11.8236 21.3694 11.6836V24.7142L19.048 27.0676C18.4254 27.6996 18.8747 28.7702 19.76 28.7702H31.5C32.3827 28.7702 32.8334 27.7049 32.2147 27.0716L29.984 24.7876L29.8947 8.8769L32.2027 6.59956C32.8374 5.97156 32.3907 4.88756 31.5 4.88756C30.564 4.88756 34.8934 4.88623 22.34 4.8929C21.0627 4.93023 21.4947 6.07823 17.0254 17.9222L11.5454 5.48356C11.3854 5.1209 11.0254 4.88623 10.6294 4.88623H1.50003C0.510694 4.88756 0.122694 6.17956 0.950693 6.72223ZM3.93603 26.7702L5.41203 25.3129L6.88802 26.7702H3.93603ZM23.3694 6.88756H29.064C28.4254 7.6009 27.8894 7.8089 27.892 8.46756L27.9867 25.2022C27.9894 25.8369 28.508 26.0596 29.1254 26.7689H22.152C22.8414 25.9862 23.3707 25.7716 23.3707 25.1236V6.88756H23.3694ZM9.97736 6.88756L16.0494 20.6676L14.4147 25.2636C6.18003 7.77556 6.46936 7.5009 4.84003 6.88756H9.97736Z" fill="white"/>
</g>
<defs>
<clipPath id="clip0">
<rect width="32" height="32" fill="white" transform="translate(0.5 0.826172)"/>
</clipPath>
</defs>
</svg>
