<svg width="24" height="24" viewBox="0 0 24 24" fill="none" xmlns="http://www.w3.org/2000/svg">
<path d="M17.5977 6.29842C17.5977 7.75449 17.0755 9.01485 16.0454 10.0451C15.0154 11.0752 13.7548 11.5973 12.2988 11.5973H12.2962C10.842 11.5968 9.58232 11.0747 8.55225 10.0451C7.522 9.01485 7 7.75449 7 6.29842C7 4.84285 7.522 3.58232 8.55225 2.55225C9.58182 1.52251 10.8415 1.0005 12.2962 1H12.2988C13.7543 1 15.0148 1.52217 16.0454 2.55225C17.0755 3.58232 17.5977 4.84285 17.5977 6.29842Z" fill="white" fill-opacity="0.3"/>
<path d="M21.3549 19.2164C21.3549 20.3652 20.9895 21.2952 20.2697 21.9802C19.5584 22.6571 18.6176 23 17.4738 23H6.88062C5.73674 23 4.79596 22.6571 4.08513 21.9802C3.3649 21.2947 3 20.3648 3 19.2164C3 18.7747 3.0146 18.3376 3.04381 17.9173C3.07352 17.4876 3.13361 17.02 3.22223 16.5267C3.31152 16.0294 3.42633 15.5592 3.5638 15.1295C3.70647 14.6847 3.89949 14.246 4.13834 13.8257C4.38641 13.3895 4.6778 13.0095 5.00443 12.6966C5.34683 12.3691 5.76544 12.1061 6.24934 11.9144C6.73157 11.7238 7.26616 11.6271 7.83818 11.6271C8.06259 11.6271 8.27995 11.7189 8.6989 11.9918C8.96107 12.1628 9.2632 12.3575 9.59671 12.5707C9.88474 12.7543 10.2748 12.9265 10.757 13.0821C11.1808 13.2193 11.611 13.2958 12.036 13.3091C12.0829 13.3107 12.1297 13.3116 12.1765 13.3116C12.6485 13.3116 13.1259 13.2342 13.5965 13.0821C14.0787 12.9265 14.4693 12.7543 14.7572 12.5707C15.0942 12.3554 15.3963 12.1608 15.6546 11.9923C16.0739 11.7189 16.2909 11.6271 16.5159 11.6271C17.0874 11.6271 17.622 11.7238 18.1045 11.9144C18.5884 12.1061 19.007 12.3696 19.3491 12.6966C19.6762 13.0095 19.9676 13.3895 20.2155 13.8257C20.4545 14.2463 20.6479 14.6847 20.7901 15.129C20.9277 15.5592 21.0428 16.0294 21.1321 16.527C21.2203 17.0208 21.2805 17.4884 21.3101 17.917C21.3398 18.3359 21.3544 18.773 21.3549 19.2164Z" fill="white" fill-opacity="0.6"/>
</svg>
