<svg width="33" height="33" viewBox="0 0 33 33" fill="none" xmlns="http://www.w3.org/2000/svg">
<g clip-path="url(#clip0)">
<path d="M24.0626 23.1171C19.7533 20.2784 14.336 19.5891 7.96131 21.0744C6.68131 21.3717 7.11331 23.3144 8.41464 23.0224C18.6706 20.6384 22.4773 24.9531 23.512 24.9531C24.5013 24.9517 24.8893 23.6624 24.0626 23.1171Z" fill="white"/>
<path d="M7.50935 18.0208C13.244 16.6634 19.7547 17.4528 24.5013 20.0768C25.656 20.7154 26.624 18.9648 25.4693 18.3274C20.3027 15.4714 13.2467 14.6101 7.04935 16.0754C5.76402 16.3781 6.21868 18.3234 7.50935 18.0208Z" fill="white"/>
<path d="M6.75201 12.8181C12.792 10.9701 21.2653 11.9834 26.044 15.1247C27.1413 15.8461 28.2493 14.1807 27.1427 13.4541C21.836 9.96474 12.82 8.87008 6.16667 10.9047C4.89734 11.2927 5.49467 13.2061 6.75201 12.8181Z" fill="white"/>
<path d="M16.5 32.8262C25.3227 32.8262 32.5 25.6488 32.5 16.8262C32.5 8.00351 25.3227 0.826172 16.5 0.826172C7.67733 0.826172 0.5 8.00351 0.5 16.8262C0.5 25.6488 7.67733 32.8262 16.5 32.8262ZM16.5 2.82617C24.22 2.82617 30.5 9.10617 30.5 16.8262C30.5 24.5462 24.22 30.8262 16.5 30.8262C8.78 30.8262 2.5 24.5462 2.5 16.8262C2.5 9.10617 8.78 2.82617 16.5 2.82617Z" fill="white"/>
</g>
<defs>
<clipPath id="clip0">
<rect width="32" height="32" fill="white" transform="translate(0.5 0.826172)"/>
</clipPath>
</defs>
</svg>
