<svg width="209" height="19" viewBox="0 0 209 19" fill="none" xmlns="http://www.w3.org/2000/svg">
<path opacity="0.8" d="M190.665 0L208.611 0L190.665 18.0581V0Z" fill="white"/>
<path d="M208.667 0.0560818V18.002L190.609 0.0560818L208.667 0.0560818Z" fill="white" fill-opacity="0.8"/>
<path opacity="0.8" d="M177.923 0L186.859 18.002H168.987L177.923 0Z" fill="white"/>
<path d="M178.013 4.32571L183.705 15.828H172.321L178.013 4.32571Z" fill="white" fill-opacity="0.8"/>
<rect opacity="0.8" x="131.361" y="0.381378" width="7.17839" height="17.946" fill="white"/>
<rect x="125.977" width="17.5272" height="5.47726" fill="white" fill-opacity="0.8"/>
<path opacity="0.8" fill-rule="evenodd" clip-rule="evenodd" d="M154.496 0H147.318V17.946H154.496V17.9459H164.264L159.941 13.6236C160.791 13.3022 161.574 12.9064 162.268 12.4457C163.289 11.7688 164.099 10.965 164.651 10.0805C165.204 9.19599 165.488 8.24796 165.488 7.29055C165.488 6.33314 165.204 5.38511 164.651 4.50058C164.099 3.61604 163.289 2.81234 162.268 2.13535C161.248 1.45836 160.036 0.921344 158.702 0.55496C157.369 0.18858 155.94 3.98677e-06 154.496 0C154.496 0 154.496 0 154.496 0Z" fill="white"/>
<path d="M150.333 2.66666C151.865 2.66666 153.383 2.79599 154.798 3.04726C156.213 3.29853 157.5 3.66683 158.583 4.13112C159.666 4.59542 160.526 5.14661 161.112 5.75324C161.698 6.35987 162 7.01005 162 7.66666C162 8.32327 161.698 8.97345 161.112 9.58007C160.526 10.1867 159.666 10.7379 158.583 11.2022C157.5 11.6665 156.213 12.0348 154.798 12.2861C153.382 12.5373 151.865 12.6667 150.333 12.6667L150.333 7.66666V2.66666Z" fill="white" fill-opacity="0.8"/>
<path opacity="0.8" d="M65.7346 0L83.6805 0L65.7346 18.0581V0Z" fill="white"/>
<path d="M83.7366 0.0561123V18.0021L65.6785 0.0561123L83.7366 0.0561123Z" fill="white" fill-opacity="0.8"/>
<path opacity="0.8" d="M0.0623924 6.32159e-06L18.0084 0.0062561L0.0561035 18.0581L0.0623924 6.32159e-06Z" fill="white"/>
<path d="M1.39494e-05 18.0022L0.00626373 0.0562134L18.0581 18.0085L1.39494e-05 18.0022Z" fill="white" fill-opacity="0.8"/>
<path opacity="0.8" d="M53.565 0L62.5014 18.002H44.6285L53.565 0Z" fill="white"/>
<path d="M53.6547 4.32571L59.3469 15.828H47.9626L53.6547 4.32571Z" fill="white" fill-opacity="0.8"/>
<rect opacity="0.8" x="22.6082" width="7.17838" height="17.946" fill="white"/>
<rect opacity="0.8" x="33.3758" width="7.17838" height="17.946" fill="white"/>
<rect x="20.8136" y="7.17834" width="21.5352" height="4.38181" fill="white" fill-opacity="0.8"/>
<rect opacity="0.8" x="88.111" y="0.224335" width="7.17839" height="17.946" fill="white"/>
<rect opacity="0.8" x="98.8785" y="0.224335" width="7.17839" height="17.946" fill="white"/>
<rect x="86.3163" y="7.40274" width="21.5351" height="4.38181" fill="white" fill-opacity="0.8"/>
</svg>
